<svg width="17" height="17" fill="none" xmlns="http://www.w3.org/2000/svg"><path d="M13.627 9.942c-.327-.34-.722-.521-1.14-.521-.416 0-.814.178-1.155.517l-1.067 1.059c-.087-.047-.175-.091-.26-.135-.121-.06-.236-.117-.334-.178-.999-.632-1.907-1.455-2.777-2.52-.422-.53-.706-.978-.912-1.431.277-.252.534-.515.783-.767l.284-.285c.709-.706.709-1.62 0-2.325l-.922-.918a14.02 14.02 0 01-.314-.32 15.9 15.9 0 00-.634-.624C4.852 1.171 4.46 1 4.049 1c-.413 0-.81.171-1.148.494l-.007.007-1.148 1.152c-.432.43-.678.955-.732 1.563-.081.98.21 1.895.432 2.493.547 1.468 1.364 2.83 2.582 4.288a15.873 15.873 0 005.289 4.123c.776.366 1.813.8 2.97.873.071.004.145.007.213.007.78 0 1.434-.279 1.947-.833.004-.007.01-.01.014-.017.175-.212.378-.403.59-.608.146-.138.294-.283.44-.434.334-.346.509-.75.509-1.162 0-.417-.179-.817-.52-1.153l-1.853-1.851zm1.208 3.538c-.003 0-.003.003 0 0-.131.141-.266.269-.411.41-.22.208-.442.426-.652.672-.34.363-.742.534-1.269.534-.05 0-.104 0-.155-.003-1.003-.064-1.934-.454-2.633-.787a14.984 14.984 0 01-4.982-3.884c-1.15-1.381-1.92-2.658-2.43-4.029-.314-.837-.428-1.488-.378-2.103a1.54 1.54 0 01.466-.998l1.151-1.146c.165-.155.34-.239.513-.239.213 0 .385.128.493.235l.01.01c.206.192.402.39.607.602l.321.326.922.917c.357.356.357.686 0 1.042-.098.097-.193.195-.29.289a17.58 17.58 0 01-.848.82c-.007.007-.013.01-.017.017-.29.289-.236.57-.175.762l.01.03c.24.579.577 1.123 1.09 1.771l.003.004c.932 1.142 1.914 2.033 2.998 2.715.138.087.28.158.415.225.121.06.236.118.334.178l.04.024a.735.735 0 00.335.084c.28 0 .455-.175.513-.232l1.154-1.15c.115-.114.297-.251.51-.251.209 0 .381.13.486.245l.006.007 1.86 1.851c.348.343.348.696.003 1.052z" fill="#fff" stroke="#fff" stroke-width=".4"/></svg>