<svg width="877" height="866" viewBox="0 0 877 866" fill="none" xmlns="http://www.w3.org/2000/svg">
<mask id="mask0" mask-type="alpha" maskUnits="userSpaceOnUse" x="0" y="0" width="878" height="866">
<rect x="877.055" y="866" width="876.952" height="865.911" transform="rotate(-180 877.055 866)" fill="#354BAC"/>
</mask>
<g mask="url(#mask0)">
<path d="M315.177 474.876C315.177 263.412 486.602 91.9871 698.066 91.9871C909.53 91.9871 1080.96 263.412 1080.96 474.876C1080.96 686.34 909.53 857.765 698.066 857.765C486.602 857.765 315.177 686.34 315.177 474.876Z" stroke="#EE794F" stroke-width="7"/>
<path d="M453.121 597.079C453.121 452.233 570.542 334.812 715.388 334.812C860.233 334.812 977.654 452.233 977.654 597.079C977.654 741.925 860.233 859.346 715.387 859.346C570.542 859.346 453.121 741.925 453.121 597.079Z" stroke="#EE794F" stroke-width="7"/>
</g>
</svg>
