<svg width="18" height="14" viewBox="0 0 18 14" fill="none" xmlns="http://www.w3.org/2000/svg">
<path d="M15.5 1H2.50001C1.67285 1 1 1.67285 1 2.50001V11.5C1 12.3271 1.67285 13 2.50001 13H15.5C16.3271 13 17 12.3271 17 11.5V2.50001C17 1.67285 16.3271 1 15.5 1ZM15.5 1.99999C15.5679 1.99999 15.6325 2.01409 15.6916 2.0387L9 7.83838L2.30833 2.0387C2.36742 2.01412 2.43204 1.99999 2.49998 1.99999H15.5ZM15.5 12H2.50001C2.22414 12 2 11.7759 2 11.5V3.09521L8.67236 8.87792C8.76661 8.95944 8.8833 8.99999 9 8.99999C9.1167 8.99999 9.23339 8.95948 9.32764 8.87792L16 3.09521V11.5C16 11.7759 15.7759 12 15.5 12Z" fill="white" stroke="white" stroke-width="0.3"/>
</svg>
