<svg width="16" height="16" fill="none" xmlns="http://www.w3.org/2000/svg"><path d="M12.785 9.345c-.305-.316-.674-.486-1.064-.486-.388 0-.76.167-1.078.483l-.995.988c-.082-.044-.164-.085-.243-.125a3.977 3.977 0 01-.312-.166c-.932-.59-1.78-1.358-2.592-2.353-.394-.495-.659-.912-.85-1.336.257-.235.497-.48.73-.715l.265-.266c.661-.659.661-1.512 0-2.17l-.86-.857a13.087 13.087 0 01-.293-.298 14.838 14.838 0 00-.593-.583C4.595 1.16 4.23 1 3.845 1c-.384 0-.756.16-1.071.461l-.006.006-1.071 1.076a2.29 2.29 0 00-.684 1.458c-.076.916.195 1.77.403 2.327.51 1.37 1.273 2.641 2.41 4.002a14.815 14.815 0 004.937 3.848c.724.342 1.691.747 2.772.816.066.003.135.006.198.006.728 0 1.34-.26 1.818-.778.003-.006.01-.01.012-.015.164-.198.353-.377.552-.568.135-.129.274-.264.41-.405.311-.323.475-.7.475-1.085 0-.389-.167-.762-.485-1.075l-1.73-1.729zm1.128 3.303c-.003 0-.003.003 0 0-.123.132-.249.25-.384.383a8.291 8.291 0 00-.608.627c-.318.338-.693.498-1.185.498-.047 0-.097 0-.145-.003-.935-.06-1.805-.423-2.457-.734a13.985 13.985 0 01-4.65-3.625c-1.074-1.29-1.792-2.48-2.268-3.76-.293-.781-.4-1.39-.352-1.964.031-.367.173-.67.434-.931l1.074-1.07c.155-.144.319-.222.48-.222.198 0 .358.119.46.22l.009.009c.192.178.375.364.567.561l.299.304.86.856c.334.333.334.64 0 .973-.091.09-.18.182-.27.27-.266.27-.518.52-.792.765-.006.006-.012.01-.015.015-.271.27-.22.533-.164.712.003.01.006.02.01.028.223.54.538 1.048 1.017 1.653l.003.003c.87 1.067 1.786 1.898 2.797 2.534.13.082.262.148.388.21.113.057.22.11.312.167l.038.022a.684.684 0 00.311.078.674.674 0 00.48-.216l1.077-1.073c.107-.106.277-.235.475-.235.196 0 .356.122.454.229l.006.006 1.736 1.728c.325.32.325.65.003.982z" fill="#fff" stroke="#fff" stroke-width=".4"/></svg>