<svg width="68" height="71" fill="none" xmlns="http://www.w3.org/2000/svg"><path d="M33.53 29.477a.821.821 0 01-.821-.821v-8.767a.821.821 0 111.642 0v8.767a.821.821 0 01-.82.82zM15.696 31.507a.82.82 0 01-.639-1.337l8.722-10.797a.821.821 0 011.278 1.032l-8.721 10.797a.821.821 0 01-.64.305zM51.18 31.276a.82.82 0 01-.638-.305l-8.535-10.566a.821.821 0 111.277-1.032L51.82 29.94a.822.822 0 01-.638 1.338v-.002z" fill="#EE794F"/><path d="M27.42 20.71a.82.82 0 01-.796-1.025l1.876-7.323a.821.821 0 011.591.407l-1.875 7.324a.821.821 0 01-.795.617zM39.64 20.71a.822.822 0 01-.794-.618L36.97 12.77a.821.821 0 011.591-.407l1.875 7.323a.821.821 0 01-.796 1.025z" fill="#EBE7F2"/><path d="M49.483 53.477a.821.821 0 01-.73-1.196l3.453-6.738a.821.821 0 111.461.75l-3.451 6.74a.82.82 0 01-.733.444zM17.578 53.477a.821.821 0 01-.732-.446l-3.453-6.737a.822.822 0 011.462-.75l3.453 6.737a.82.82 0 01-.73 1.196zM41.151 53.477a.82.82 0 01-.731-.446l-3.453-6.734a.821.821 0 011.462-.75l3.452 6.734a.822.822 0 01-.73 1.196zM25.912 53.477a.82.82 0 01-.73-1.196l3.433-6.696a.821.821 0 111.462.75l-3.434 6.697a.82.82 0 01-.73.445z" fill="#EE794F"/><path d="M24.419 20.71h18.227a.82.82 0 00.796-1.025l-2.55-9.956a2.881 2.881 0 00-2.791-2.168H37.6a4.875 4.875 0 10-8.135 0h-.5a2.88 2.88 0 00-2.793 2.168l-2.549 9.956a.823.823 0 00.796 1.025zm3.344-10.574a1.24 1.24 0 011.201-.932h2.528a.82.82 0 00.414-1.53 3.232 3.232 0 113.252 0 .82.82 0 00.414 1.53H38.1a1.24 1.24 0 011.2.932l2.287 8.932H25.477l2.286-8.932zM19.913 37.79a9.956 9.956 0 10-9.957 9.957 9.968 9.968 0 009.957-9.956zm-9.957 8.315a8.314 8.314 0 118.314-8.314 8.323 8.323 0 01-8.314 8.314zM43.487 37.79a9.957 9.957 0 10-9.956 9.957 9.968 9.968 0 009.956-9.956zm-9.956 8.315a8.314 8.314 0 118.314-8.314 8.323 8.323 0 01-8.314 8.314zM57.107 27.834a9.956 9.956 0 109.956 9.957 9.968 9.968 0 00-9.956-9.956zm0 18.271a8.315 8.315 0 118.314-8.314 8.323 8.323 0 01-8.314 8.314zM21.744 50.828a9.957 9.957 0 109.956 9.957 9.967 9.967 0 00-9.956-9.957zm0 18.27a8.315 8.315 0 118.314-8.313 8.323 8.323 0 01-8.314 8.314zM45.318 50.828a9.956 9.956 0 109.958 9.957 9.968 9.968 0 00-9.958-9.957zm0 18.27a8.314 8.314 0 118.316-8.313 8.324 8.324 0 01-8.316 8.314z" fill="#354BAC"/><path d="M23.716 59.143l-2.65 2.65-1.295-1.296a.82.82 0 10-1.16 1.161l1.875 1.876a.822.822 0 001.162 0l3.23-3.23a.82.82 0 10-1.162-1.16zM47.292 59.143l-2.65 2.65-1.295-1.296a.821.821 0 10-1.16 1.161l1.875 1.876a.821.821 0 001.161 0l3.23-3.23a.82.82 0 10-1.16-1.16zM6.528 36.838h5.092a.821.821 0 100-1.642H6.528a.821.821 0 100 1.642zM13.385 38.743H6.528a.821.821 0 100 1.642h6.857a.821.821 0 100-1.642zM30.102 36.838h5.092a.821.821 0 100-1.642h-5.092a.821.821 0 100 1.642zM36.96 38.743h-6.858a.821.821 0 100 1.642h6.857a.821.821 0 100-1.642zM53.677 36.838h5.091a.821.821 0 100-1.642h-5.091a.821.821 0 100 1.642zM60.534 38.743h-6.857a.821.821 0 100 1.642h6.857a.821.821 0 100-1.642z" fill="#354BAC"/></svg>