<svg width="68" height="71" viewBox="0 0 68 71" fill="none" xmlns="http://www.w3.org/2000/svg">
<path d="M33.5302 29.4768C33.3124 29.4768 33.1035 29.3903 32.9495 29.2363C32.7955 29.0823 32.709 28.8734 32.709 28.6556V19.8889C32.709 19.6711 32.7955 19.4623 32.9495 19.3083C33.1035 19.1543 33.3124 19.0677 33.5302 19.0677C33.748 19.0677 33.9568 19.1543 34.1108 19.3083C34.2648 19.4623 34.3514 19.6711 34.3514 19.8889V28.6556C34.3514 28.8734 34.2648 29.0823 34.1108 29.2363C33.9568 29.3903 33.748 29.4768 33.5302 29.4768Z" fill="#EE794F"/>
<path d="M15.6956 31.5068C15.5407 31.5067 15.3889 31.4628 15.2578 31.38C15.1268 31.2973 15.0218 31.1792 14.9551 31.0394C14.8883 30.8995 14.8625 30.7436 14.8806 30.5897C14.8987 30.4358 14.96 30.2902 15.0574 30.1696L23.7794 19.3729C23.9163 19.2035 24.1149 19.0953 24.3314 19.0723C24.548 19.0493 24.7649 19.1132 24.9344 19.2501C25.1038 19.3869 25.2119 19.5855 25.235 19.8021C25.258 20.0187 25.1941 20.2355 25.0572 20.405L16.3355 31.2017C16.2585 31.2972 16.161 31.3742 16.0503 31.4271C15.9395 31.4799 15.8183 31.5071 15.6956 31.5068Z" fill="#EE794F"/>
<path d="M51.1809 31.2762C51.0583 31.2764 50.9373 31.2491 50.8266 31.1963C50.716 31.1435 50.6186 31.0665 50.5417 30.9711L42.0066 20.405C41.8697 20.2355 41.8058 20.0187 41.8288 19.8021C41.8519 19.5855 41.96 19.3869 42.1294 19.2501C42.2989 19.1132 42.5158 19.0493 42.7323 19.0723C42.9489 19.0953 43.1475 19.2035 43.2844 19.3729L51.8195 29.9403C51.9169 30.0609 51.9782 30.2066 51.9963 30.3605C52.0144 30.5144 51.9885 30.6704 51.9217 30.8102C51.8549 30.9501 51.7499 31.0682 51.6188 31.1509C51.4878 31.2336 51.3359 31.2775 51.1809 31.2776V31.2762Z" fill="#EE794F"/>
<path d="M27.4209 20.7102C27.352 20.7102 27.2833 20.7015 27.2166 20.6842C27.0057 20.6301 26.8249 20.4944 26.7141 20.307C26.6032 20.1197 26.5713 19.8959 26.6253 19.685L28.4999 12.362C28.5539 12.151 28.6896 11.9701 28.877 11.8591C29.0643 11.748 29.2882 11.716 29.4992 11.77C29.7101 11.8241 29.8911 11.9597 30.0021 12.1471C30.1131 12.3345 30.1451 12.5583 30.0911 12.7693L28.2161 20.0926C28.1709 20.2692 28.0682 20.4258 27.9242 20.5376C27.7803 20.6494 27.6032 20.7101 27.4209 20.7102Z" fill="#EBE7F2"/>
<path d="M39.6408 20.7102C39.4585 20.71 39.2815 20.6492 39.1376 20.5374C38.9937 20.4255 38.891 20.2689 38.8459 20.0923L36.971 12.7693C36.917 12.5583 36.949 12.3345 37.06 12.1471C37.171 11.9597 37.3519 11.8241 37.5629 11.77C37.7739 11.716 37.9977 11.748 38.1851 11.8591C38.3725 11.9701 38.5081 12.151 38.5621 12.362L40.4367 19.685C40.4908 19.8959 40.4588 20.1197 40.348 20.307C40.2371 20.4944 40.0563 20.6301 39.8455 20.6842C39.7786 20.7015 39.7099 20.7103 39.6408 20.7102Z" fill="#EBE7F2"/>
<path d="M49.4827 53.4773C49.342 53.4772 49.2037 53.4409 49.0811 53.372C48.9584 53.3031 48.8555 53.2039 48.7823 53.0838C48.709 52.9637 48.6678 52.8268 48.6627 52.6862C48.6575 52.5456 48.6885 52.4061 48.7528 52.2809L52.2061 45.5429C52.2553 45.447 52.3229 45.3616 52.4051 45.2918C52.4873 45.222 52.5824 45.1691 52.6851 45.136C52.7878 45.103 52.8959 45.0905 53.0034 45.0992C53.1109 45.108 53.2156 45.1378 53.3116 45.187C53.4075 45.2362 53.4928 45.3039 53.5626 45.3861C53.6325 45.4682 53.6854 45.5634 53.7185 45.666C53.7515 45.7687 53.764 45.8769 53.7553 45.9843C53.7465 46.0918 53.7167 46.1965 53.6675 46.2925L50.2158 53.0322C50.1465 53.1667 50.0414 53.2795 49.912 53.358C49.7826 53.4366 49.634 53.4778 49.4827 53.4773Z" fill="#EE794F"/>
<path d="M17.578 53.4773C17.4268 53.4774 17.2784 53.4357 17.1494 53.3569C17.0203 53.2781 16.9155 53.1651 16.8465 53.0305L13.3932 46.2941C13.344 46.1982 13.3142 46.0935 13.3054 45.986C13.2967 45.8785 13.3092 45.7703 13.3422 45.6677C13.409 45.4604 13.5554 45.2881 13.7492 45.1887C13.9429 45.0893 14.1683 45.0709 14.3756 45.1377C14.4783 45.1707 14.5734 45.2237 14.6556 45.2935C14.7378 45.3633 14.8054 45.4486 14.8546 45.5446L18.3079 52.281C18.3722 52.4061 18.4032 52.5456 18.398 52.6862C18.3929 52.8268 18.3517 52.9637 18.2784 53.0838C18.2052 53.2039 18.1023 53.3031 17.9796 53.372C17.857 53.4409 17.7187 53.4772 17.578 53.4773Z" fill="#EE794F"/>
<path d="M41.1513 53.4773C41 53.4775 40.8517 53.4358 40.7226 53.357C40.5935 53.2782 40.4887 53.1652 40.4197 53.0306L36.9674 46.2969C36.868 46.103 36.8497 45.8776 36.9165 45.6703C36.9833 45.4629 37.1297 45.2906 37.3235 45.1912C37.5174 45.0918 37.7427 45.0735 37.9501 45.1403C38.1574 45.207 38.3298 45.3534 38.4292 45.5473L41.8811 52.281C41.9454 52.4062 41.9764 52.5457 41.9713 52.6863C41.9661 52.8269 41.9249 52.9638 41.8516 53.0839C41.7784 53.2039 41.6755 53.3032 41.5529 53.3721C41.4302 53.441 41.2919 53.4772 41.1513 53.4773Z" fill="#EE794F"/>
<path d="M25.9124 53.4773C25.7717 53.4772 25.6334 53.441 25.5108 53.3721C25.3881 53.3032 25.2852 53.2039 25.212 53.0838C25.1387 52.9637 25.0975 52.8268 25.0924 52.6863C25.0872 52.5457 25.1182 52.4061 25.1825 52.281L28.6151 45.585C28.6635 45.4878 28.7307 45.4011 28.8129 45.33C28.8951 45.2589 28.9906 45.2049 29.0938 45.1709C29.197 45.137 29.3059 45.1239 29.4142 45.1324C29.5226 45.1409 29.6281 45.1708 29.7248 45.2203C29.8215 45.2699 29.9074 45.3382 29.9775 45.4212C30.0476 45.5042 30.1005 45.6003 30.1332 45.7039C30.166 45.8075 30.1778 45.9165 30.168 46.0248C30.1583 46.133 30.1272 46.2382 30.0765 46.3343L26.6435 53.0322C26.5744 53.1665 26.4695 53.2791 26.3405 53.3576C26.2115 53.4361 26.0634 53.4775 25.9124 53.4773Z" fill="#EE794F"/>
<path d="M24.4189 20.7101H42.646C42.7712 20.7102 42.8948 20.6815 43.0072 20.6265C43.1196 20.5714 43.218 20.4914 43.2947 20.3925C43.3715 20.2936 43.4247 20.1785 43.4501 20.0559C43.4756 19.9333 43.4727 19.8066 43.4416 19.6853L40.8926 9.72853C40.7342 9.10836 40.3737 8.5586 39.8682 8.16604C39.3626 7.77347 38.7407 7.56044 38.1006 7.56059H37.5997C38.0849 6.82591 38.3621 5.97351 38.4018 5.09394C38.4414 4.21437 38.2421 3.34048 37.825 2.56509C37.4079 1.7897 36.7885 1.14177 36.0327 0.690128C35.2769 0.238487 34.4129 0 33.5325 0C32.652 0 31.788 0.238487 31.0322 0.690128C30.2764 1.14177 29.657 1.7897 29.2399 2.56509C28.8228 3.34048 28.6235 4.21437 28.6631 5.09394C28.7028 5.97351 28.98 6.82591 29.4653 7.56059H28.9643C28.3242 7.56044 27.7023 7.77347 27.1968 8.16604C26.6912 8.5586 26.3307 9.10836 26.1723 9.72853L23.6233 19.6853C23.5923 19.8066 23.5894 19.9333 23.6148 20.0559C23.6403 20.1785 23.6934 20.2936 23.7702 20.3925C23.8469 20.4914 23.9453 20.5714 24.0577 20.6265C24.1702 20.6815 24.2937 20.7102 24.4189 20.7101ZM27.7634 10.1362C27.8316 9.86942 27.9866 9.63296 28.2041 9.4641C28.4215 9.29524 28.689 9.20359 28.9643 9.20362H31.492C31.6724 9.20359 31.8478 9.14414 31.991 9.03446C32.1343 8.92479 32.2374 8.77098 32.2845 8.59682C32.3316 8.42266 32.3201 8.23783 32.2516 8.07089C32.1832 7.90396 32.0617 7.76422 31.9058 7.67325C31.2918 7.31582 30.8127 6.76603 30.5426 6.10893C30.2725 5.45183 30.2264 4.72403 30.4115 4.03811C30.5967 3.35219 31.0026 2.74638 31.5667 2.31439C32.1307 1.8824 32.8213 1.64829 33.5318 1.64829C34.2423 1.64829 34.9329 1.8824 35.4969 2.31439C36.061 2.74638 36.4669 3.35219 36.652 4.03811C36.8372 4.72403 36.7911 5.45183 36.521 6.10893C36.2509 6.76603 35.7718 7.31582 35.1578 7.67325C35.0019 7.76422 34.8804 7.90396 34.812 8.07089C34.7435 8.23783 34.732 8.42266 34.7791 8.59682C34.8262 8.77098 34.9293 8.92479 35.0726 9.03446C35.2158 9.14414 35.3912 9.20359 35.5716 9.20362H38.1009C38.3762 9.20359 38.6437 9.29524 38.8612 9.4641C39.0786 9.63296 39.2337 9.86942 39.3018 10.1362L41.588 19.0678H25.4769L27.7634 10.1362Z" fill="#354BAC"/>
<path d="M19.9129 37.7909C19.9129 35.8217 19.329 33.8967 18.2349 32.2594C17.1409 30.6221 15.5859 29.3459 13.7666 28.5924C11.9473 27.8388 9.94541 27.6416 8.01404 28.0258C6.08268 28.41 4.30861 29.3582 2.91618 30.7507C1.52375 32.1431 0.575486 33.9172 0.191315 35.8485C-0.192857 37.7799 0.00431413 39.7818 0.757894 41.6011C1.51147 43.4204 2.78762 44.9754 4.42495 46.0694C6.06227 47.1634 7.98725 47.7474 9.95645 47.7474C12.5962 47.7444 15.1269 46.6945 16.9935 44.8279C18.86 42.9614 19.9099 40.4306 19.9129 37.7909ZM9.95645 46.105C8.31208 46.105 6.70465 45.6174 5.3374 44.7038C3.97016 43.7903 2.90453 42.4918 2.27526 40.9726C1.64598 39.4534 1.48134 37.7817 1.80214 36.1689C2.12294 34.5562 2.91478 33.0747 4.07752 31.912C5.24026 30.7492 6.72169 29.9574 8.33446 29.6366C9.94723 29.3158 11.6189 29.4805 13.1381 30.1097C14.6573 30.739 15.9558 31.8046 16.8693 33.1719C17.7829 34.5391 18.2705 36.1466 18.2705 37.7909C18.2681 39.9952 17.3914 42.1085 15.8327 43.6672C14.274 45.2258 12.1607 46.1026 9.95645 46.105Z" fill="#354BAC"/>
<path d="M43.4871 37.7909C43.4871 35.8217 42.9032 33.8967 41.8092 32.2594C40.7151 30.6221 39.1601 29.3459 37.3408 28.5924C35.5215 27.8388 33.5196 27.6416 31.5883 28.0258C29.6569 28.41 27.8828 29.3582 26.4904 30.7507C25.098 32.1431 24.1497 33.9172 23.7655 35.8485C23.3814 37.7799 23.5785 39.7818 24.3321 41.6011C25.0857 43.4204 26.3618 44.9754 27.9992 46.0694C29.6365 47.1634 31.5615 47.7474 33.5307 47.7474C36.1704 47.7443 38.701 46.6944 40.5676 44.8278C42.4341 42.9613 43.4841 40.4306 43.4871 37.7909ZM33.5307 46.105C31.8863 46.105 30.2789 45.6174 28.9116 44.7038C27.5444 43.7903 26.4787 42.4918 25.8495 40.9726C25.2202 39.4534 25.0556 37.7817 25.3764 36.1689C25.6972 34.5562 26.489 33.0747 27.6517 31.912C28.8145 30.7492 30.2959 29.9574 31.9087 29.6366C33.5214 29.3158 35.1931 29.4805 36.7123 30.1097C38.2315 30.739 39.53 31.8046 40.4436 33.1719C41.3571 34.5391 41.8447 36.1466 41.8447 37.7909C41.8422 39.9952 40.9655 42.1084 39.4068 43.6671C37.8482 45.2257 35.7349 46.1025 33.5307 46.105Z" fill="#354BAC"/>
<path d="M57.1072 27.8345C55.138 27.8344 53.2129 28.4183 51.5756 29.5123C49.9382 30.6063 48.662 32.1612 47.9084 33.9805C47.1547 35.7998 46.9575 37.8017 47.3417 39.7331C47.7258 41.6645 48.674 43.4386 50.0665 44.8311C51.4589 46.2235 53.2329 47.1718 55.1643 47.556C57.0957 47.9402 59.0976 47.7431 60.9169 46.9895C62.7363 46.2359 64.2913 44.9598 65.3853 43.3225C66.4793 41.6851 67.0633 39.7601 67.0633 37.7909C67.0603 35.1513 66.0105 32.6206 64.144 30.754C62.2775 28.8875 59.7468 27.8375 57.1072 27.8345ZM57.1072 46.105C55.4628 46.105 53.8553 45.6175 52.488 44.704C51.1207 43.7904 50.0551 42.492 49.4257 40.9728C48.7964 39.4536 48.6317 37.7819 48.9525 36.1691C49.2733 34.5563 50.0651 33.0749 51.2278 31.9121C52.3905 30.7493 53.8719 29.9575 55.4847 29.6366C57.0975 29.3158 58.7692 29.4804 60.2884 30.1097C61.8076 30.739 63.1061 31.8046 64.0197 33.1718C64.9333 34.5391 65.4209 36.1465 65.4209 37.7909C65.4184 39.9951 64.5417 42.1083 62.9831 43.6669C61.4245 45.2256 59.3114 46.1024 57.1072 46.105Z" fill="#354BAC"/>
<path d="M21.7436 50.8281C19.7744 50.8281 17.8494 51.4121 16.2121 52.5061C14.5747 53.6001 13.2986 55.1551 12.545 56.9744C11.7914 58.7937 11.5943 60.7956 11.9784 62.727C12.3626 64.6583 13.3109 66.4324 14.7033 67.8248C16.0957 69.2173 17.8698 70.1655 19.8012 70.5497C21.7325 70.9339 23.7344 70.7367 25.5537 69.9831C27.373 69.2295 28.928 67.9534 30.022 66.3161C31.1161 64.6788 31.7 62.7538 31.7 60.7846C31.6971 58.1449 30.6471 55.6141 28.7806 53.7476C26.914 51.881 24.3833 50.8311 21.7436 50.8281ZM21.7436 69.0986C20.0992 69.0986 18.4918 68.611 17.1245 67.6975C15.7573 66.7839 14.6916 65.4854 14.0624 63.9662C13.4331 62.447 13.2684 60.7754 13.5892 59.1626C13.91 57.5498 14.7019 56.0684 15.8646 54.9056C17.0274 53.7429 18.5088 52.9511 20.1216 52.6303C21.7343 52.3095 23.406 52.4741 24.9252 53.1034C26.4444 53.7327 27.7429 54.7983 28.6565 56.1655C29.57 57.5328 30.0576 59.1402 30.0576 60.7846C30.0552 62.9889 29.1785 65.1022 27.6198 66.6608C26.0611 68.2195 23.9478 69.0962 21.7436 69.0986Z" fill="#354BAC"/>
<path d="M45.3184 50.8281C43.3493 50.8284 41.4244 51.4125 39.7873 52.5067C38.1501 53.6009 36.8742 55.156 36.1208 56.9753C35.3674 58.7946 35.1704 60.7965 35.5548 62.7278C35.9391 64.6591 36.8874 66.433 38.2799 67.8253C39.6724 69.2176 41.4465 70.1657 43.3778 70.5498C45.3091 70.9339 47.311 70.7366 49.1302 69.983C50.9494 69.2294 52.5043 67.9532 53.5983 66.3159C54.6923 64.6786 55.2762 62.7537 55.2762 60.7846C55.2732 58.1446 54.2231 55.6137 52.3563 53.7471C50.4894 51.8805 47.9584 50.8307 45.3184 50.8281ZM45.3184 69.0986C43.6741 69.0984 42.0668 68.6105 40.6997 67.6968C39.3327 66.7831 38.2672 65.4845 37.6382 63.9653C37.0091 62.4461 36.8446 60.7745 37.1656 59.1618C37.4865 57.5491 38.2785 56.0678 39.4413 54.9052C40.6041 53.7426 42.0855 52.9509 43.6982 52.6302C45.311 52.3095 46.9826 52.4742 48.5017 53.1035C50.0208 53.7328 51.3192 54.7985 52.2327 56.1657C53.1462 57.5329 53.6338 59.1403 53.6338 60.7846C53.6313 62.9891 52.7543 65.1025 51.1954 66.6612C49.6365 68.2199 47.5229 69.0965 45.3184 69.0986Z" fill="#354BAC"/>
<path d="M23.7162 59.1433L21.0667 61.7924L19.7712 60.4973C19.6955 60.4188 19.6049 60.3563 19.5047 60.3132C19.4045 60.2702 19.2967 60.2475 19.1877 60.2466C19.0787 60.2456 18.9705 60.2664 18.8696 60.3077C18.7687 60.349 18.677 60.41 18.5999 60.4871C18.5228 60.5642 18.4618 60.6559 18.4205 60.7568C18.3792 60.8577 18.3585 60.9658 18.3594 61.0749C18.3604 61.1839 18.383 61.2917 18.426 61.3919C18.4691 61.4921 18.5316 61.5827 18.6101 61.6584L20.4863 63.5344C20.6403 63.6883 20.8492 63.7748 21.0669 63.7748C21.2847 63.7748 21.4935 63.6883 21.6475 63.5344L24.8774 60.3044C24.9558 60.2287 25.0184 60.1381 25.0614 60.0379C25.1045 59.9377 25.1271 59.8299 25.1281 59.7209C25.129 59.6119 25.1082 59.5037 25.067 59.4028C25.0257 59.3019 24.9647 59.2102 24.8876 59.1331C24.8105 59.056 24.7188 58.995 24.6179 58.9537C24.5169 58.9124 24.4088 58.8917 24.2998 58.8926C24.1907 58.8936 24.083 58.9162 23.9828 58.9593C23.8826 59.0023 23.792 59.0648 23.7162 59.1433Z" fill="#354BAC"/>
<path d="M47.2924 59.1433L44.6429 61.7924L43.3474 60.4973C43.2717 60.4188 43.181 60.3563 43.0809 60.3132C42.9807 60.2702 42.8729 60.2475 42.7639 60.2466C42.6548 60.2456 42.5467 60.2664 42.4458 60.3077C42.3449 60.349 42.2532 60.41 42.1761 60.4871C42.099 60.5642 42.038 60.6559 41.9967 60.7568C41.9554 60.8577 41.9346 60.9658 41.9356 61.0749C41.9365 61.1839 41.9592 61.2917 42.0022 61.3919C42.0453 61.4921 42.1078 61.5827 42.1862 61.6584L44.0622 63.5344C44.2162 63.6883 44.425 63.7748 44.6428 63.7748C44.8605 63.7748 45.0693 63.6883 45.2233 63.5344L48.4536 60.3044C48.532 60.2287 48.5946 60.1381 48.6376 60.0379C48.6806 59.9377 48.7033 59.8299 48.7042 59.7209C48.7052 59.6119 48.6844 59.5037 48.6431 59.4028C48.6018 59.3019 48.5409 59.2102 48.4638 59.1331C48.3867 59.056 48.295 58.995 48.194 58.9537C48.0931 58.9124 47.985 58.8917 47.8759 58.8926C47.7669 58.8936 47.6592 58.9162 47.559 58.9593C47.4588 59.0023 47.3682 59.0648 47.2924 59.1433Z" fill="#354BAC"/>
<path d="M6.52822 36.8382H11.6196C11.8374 36.8382 12.0463 36.7517 12.2003 36.5977C12.3543 36.4437 12.4408 36.2348 12.4408 36.017C12.4408 35.7992 12.3543 35.5903 12.2003 35.4363C12.0463 35.2823 11.8374 35.1958 11.6196 35.1958H6.52822C6.31043 35.1958 6.10156 35.2823 5.94755 35.4363C5.79355 35.5903 5.70703 35.7992 5.70703 36.017C5.70703 36.2348 5.79355 36.4437 5.94755 36.5977C6.10156 36.7517 6.31043 36.8382 6.52822 36.8382Z" fill="#354BAC"/>
<path d="M13.3852 38.7432H6.52822C6.31043 38.7432 6.10156 38.8297 5.94755 38.9837C5.79355 39.1377 5.70703 39.3466 5.70703 39.5644C5.70703 39.7821 5.79355 39.991 5.94755 40.145C6.10156 40.299 6.31043 40.3855 6.52822 40.3855H13.3852C13.603 40.3855 13.8118 40.299 13.9658 40.145C14.1198 39.991 14.2064 39.7821 14.2064 39.5644C14.2064 39.3466 14.1198 39.1377 13.9658 38.9837C13.8118 38.8297 13.603 38.7432 13.3852 38.7432Z" fill="#354BAC"/>
<path d="M30.1024 36.8382H35.1938C35.4116 36.8382 35.6205 36.7517 35.7745 36.5977C35.9285 36.4437 36.015 36.2348 36.015 36.017C36.015 35.7992 35.9285 35.5903 35.7745 35.4363C35.6205 35.2823 35.4116 35.1958 35.1938 35.1958H30.1024C29.8846 35.1958 29.6758 35.2823 29.5218 35.4363C29.3678 35.5903 29.2813 35.7992 29.2812 36.017C29.2813 36.2348 29.3678 36.4437 29.5218 36.5977C29.6758 36.7517 29.8846 36.8382 30.1024 36.8382Z" fill="#354BAC"/>
<path d="M36.9594 38.7432H30.1024C29.8846 38.7432 29.6758 38.8297 29.5218 38.9837C29.3678 39.1377 29.2813 39.3466 29.2812 39.5644C29.2813 39.7821 29.3678 39.991 29.5218 40.145C29.6758 40.299 29.8846 40.3855 30.1024 40.3855H36.9594C37.1772 40.3855 37.3861 40.299 37.5401 40.145C37.6941 39.991 37.7806 39.7821 37.7806 39.5644C37.7806 39.3466 37.6941 39.1377 37.5401 38.9837C37.3861 38.8297 37.1772 38.7432 36.9594 38.7432Z" fill="#354BAC"/>
<path d="M53.6767 36.8382H58.768C58.9858 36.8382 59.1947 36.7517 59.3487 36.5977C59.5027 36.4437 59.5892 36.2348 59.5892 36.017C59.5892 35.7992 59.5027 35.5903 59.3487 35.4363C59.1947 35.2823 58.9858 35.1958 58.768 35.1958H53.6767C53.4589 35.1958 53.25 35.2823 53.096 35.4363C52.942 35.5903 52.8555 35.7992 52.8555 36.017C52.8555 36.2348 52.942 36.4437 53.096 36.5977C53.25 36.7517 53.4589 36.8382 53.6767 36.8382Z" fill="#354BAC"/>
<path d="M60.5336 38.7432H53.6767C53.4589 38.7432 53.25 38.8297 53.096 38.9837C52.942 39.1377 52.8555 39.3466 52.8555 39.5644C52.8555 39.7821 52.942 39.991 53.096 40.145C53.25 40.299 53.4589 40.3855 53.6767 40.3855H60.5336C60.7514 40.3855 60.9603 40.299 61.1143 40.145C61.2683 39.991 61.3548 39.7821 61.3548 39.5644C61.3548 39.3466 61.2683 39.1377 61.1143 38.9837C60.9603 38.8297 60.7514 38.7432 60.5336 38.7432Z" fill="#354BAC"/>
</svg>
