<svg width="79" height="54" viewBox="0 0 79 54" fill="none" xmlns="http://www.w3.org/2000/svg">
<path d="M7.01358 53.8223C6.77999 53.8223 6.55596 53.7295 6.39078 53.5643C6.22561 53.3991 6.13281 53.1751 6.13281 52.9415V11.1808C6.13281 10.9472 6.22561 10.7232 6.39078 10.558C6.55596 10.3928 6.77999 10.3 7.01358 10.3C7.24717 10.3 7.4712 10.3928 7.63638 10.558C7.80155 10.7232 7.89435 10.9472 7.89435 11.1808V52.9415C7.89435 53.1751 7.80155 53.3991 7.63638 53.5643C7.4712 53.7295 7.24717 53.8223 7.01358 53.8223Z" fill="#EBE7F2"/>
<path d="M60.9804 53.8223C60.7468 53.8223 60.5228 53.7295 60.3576 53.5643C60.1924 53.3991 60.0996 53.1751 60.0996 52.9415V36.5149C60.0996 36.2813 60.1924 36.0572 60.3576 35.8921C60.5228 35.7269 60.7468 35.6341 60.9804 35.6341C61.214 35.6341 61.438 35.7269 61.6032 35.8921C61.7684 36.0572 61.8611 36.2813 61.8611 36.5149V52.9415C61.8611 53.0572 61.8384 53.1717 61.7941 53.2786C61.7498 53.3854 61.685 53.4825 61.6032 53.5643C61.5214 53.6461 61.4243 53.711 61.3174 53.7552C61.2106 53.7995 61.096 53.8223 60.9804 53.8223Z" fill="#EBE7F2"/>
<path d="M60.9804 24.8715C60.7468 24.8715 60.5228 24.7787 60.3576 24.6135C60.1924 24.4483 60.0996 24.2243 60.0996 23.9907V11.1808C60.0996 10.9472 60.1924 10.7232 60.3576 10.558C60.5228 10.3928 60.7468 10.3 60.9804 10.3C61.214 10.3 61.438 10.3928 61.6032 10.558C61.7684 10.7232 61.8611 10.9472 61.8611 11.1808V23.9907C61.8611 24.1064 61.8384 24.2209 61.7941 24.3278C61.7498 24.4346 61.685 24.5317 61.6032 24.6135C61.5214 24.6953 61.4243 24.7602 61.3174 24.8044C61.2106 24.8487 61.096 24.8715 60.9804 24.8715Z" fill="#EBE7F2"/>
<path d="M77.8472 19.6485L71.5853 13.3876C71.4202 13.2225 71.1962 13.1298 70.9626 13.1298C70.7291 13.1298 70.5051 13.2225 70.3399 13.3876L46.5944 37.1331C46.4881 37.2393 46.4108 37.3709 46.3697 37.5154L43.8908 46.2561C43.8481 46.407 43.8463 46.5665 43.8858 46.7182C43.9253 46.87 44.0046 47.0084 44.1155 47.1193C44.2264 47.2302 44.3649 47.3094 44.5166 47.3488C44.6684 47.3883 44.8279 47.3865 44.9788 47.3437L53.7195 44.8652C53.864 44.8241 53.9956 44.7467 54.1017 44.6404L77.8472 20.8967C77.9294 20.8149 77.9946 20.7176 78.0391 20.6105C78.0836 20.5034 78.1065 20.3886 78.1065 20.2726C78.1065 20.1566 78.0836 20.0418 78.0391 19.9347C77.9946 19.8276 77.9294 19.7303 77.8472 19.6485ZM47.657 39.4369L51.7973 43.5772L46.0195 45.2161L47.657 39.4369ZM53.481 42.7697L48.4641 37.7532L66.6618 19.5558L71.6766 24.5734L53.481 42.7697ZM72.9237 23.3266L67.9069 18.3097L70.9621 15.2545L75.9786 20.271L72.9237 23.3266Z" fill="#EE794F"/>
<path d="M16.5972 22.0646C16.4523 22.0646 16.3096 22.0287 16.1818 21.9603C16.054 21.8919 15.9451 21.793 15.8647 21.6724C15.7843 21.5517 15.7349 21.4132 15.7209 21.2689C15.7069 21.1246 15.7287 20.9791 15.7845 20.8453L17.8145 15.9658C17.8581 15.858 17.9228 15.7598 18.0046 15.6771C18.0864 15.5943 18.1839 15.5286 18.2912 15.4838C18.3986 15.4389 18.5138 15.4157 18.6302 15.4156C18.7466 15.4156 18.8618 15.4385 18.9692 15.4833C19.0767 15.528 19.1742 15.5935 19.2562 15.6762C19.3381 15.7588 19.4029 15.8568 19.4467 15.9646C19.4906 16.0724 19.5126 16.1879 19.5116 16.3042C19.5105 16.4206 19.4865 16.5356 19.4407 16.6426L17.4107 21.5221C17.3439 21.6827 17.231 21.82 17.0862 21.9166C16.9414 22.0132 16.7713 22.0647 16.5972 22.0646Z" fill="#EE794F"/>
<path d="M21.6583 22.048C21.4841 22.0481 21.3137 21.9964 21.1689 21.8996C21.024 21.8029 20.9111 21.6653 20.8444 21.5043C20.7777 21.3434 20.7603 21.1663 20.7943 20.9954C20.8283 20.8245 20.9122 20.6676 21.0354 20.5444L22.836 18.7437L21.0357 16.9431C20.8706 16.7778 20.7779 16.5536 20.778 16.3199C20.7782 16.0862 20.8711 15.8621 21.0365 15.697C21.2018 15.5318 21.426 15.4391 21.6597 15.4393C21.8933 15.4394 22.1174 15.5324 22.2826 15.6977L24.7057 18.1212C24.8708 18.2864 24.9636 18.5104 24.9636 18.7439C24.9636 18.9775 24.8708 19.2015 24.7057 19.3666L22.2826 21.7901C22.2007 21.8722 22.1033 21.9372 21.9962 21.9815C21.8891 22.0258 21.7742 22.0484 21.6583 22.048Z" fill="#EE794F"/>
<path d="M13.5715 22.0481C13.4558 22.0481 13.3413 22.0253 13.2344 21.9811C13.1275 21.9368 13.0304 21.872 12.9486 21.7902L10.5255 19.3667C10.3603 19.2015 10.2676 18.9775 10.2676 18.744C10.2676 18.5104 10.3603 18.2864 10.5255 18.1213L12.9476 15.6977C13.1137 15.5373 13.3362 15.4485 13.5671 15.4505C13.798 15.4525 14.0189 15.5452 14.1822 15.7085C14.3455 15.8718 14.4382 16.0927 14.4402 16.3236C14.4422 16.5546 14.3534 16.777 14.193 16.9431L12.3927 18.7438L14.193 20.5444C14.3162 20.6676 14.4001 20.8246 14.4341 20.9954C14.4681 21.1663 14.4506 21.3434 14.384 21.5044C14.3173 21.6653 14.2044 21.8029 14.0595 21.8997C13.9146 21.9965 13.7443 22.0481 13.5701 22.0481H13.5715Z" fill="#EE794F"/>
<path d="M14.8567 28.1039H11.1483C10.9148 28.1039 10.6907 28.0111 10.5255 27.8459C10.3604 27.6807 10.2676 27.4567 10.2676 27.2231C10.2676 26.9895 10.3604 26.7655 10.5255 26.6003C10.6907 26.4351 10.9148 26.3423 11.1483 26.3423H14.8567C15.0903 26.3423 15.3143 26.4351 15.4795 26.6003C15.6447 26.7655 15.7375 26.9895 15.7375 27.2231C15.7375 27.4567 15.6447 27.6807 15.4795 27.8459C15.3143 28.0111 15.0903 28.1039 14.8567 28.1039Z" fill="#EE794F"/>
<path d="M14.8567 43.6441H11.1483C10.9148 43.6441 10.6907 43.5513 10.5255 43.3861C10.3604 43.221 10.2676 42.9969 10.2676 42.7633C10.2676 42.5297 10.3604 42.3057 10.5255 42.1405C10.6907 41.9754 10.9148 41.8826 11.1483 41.8826H14.8567C15.0903 41.8826 15.3143 41.9754 15.4795 42.1405C15.6447 42.3057 15.7375 42.5297 15.7375 42.7633C15.7375 42.9969 15.6447 43.221 15.4795 43.3861C15.3143 43.5513 15.0903 43.6441 14.8567 43.6441Z" fill="#EE794F"/>
<path d="M65.3529 0.599609H2.6423C1.94178 0.600448 1.27018 0.879102 0.774839 1.37445C0.279493 1.86979 0.00083912 2.54139 0 3.24191V51.2043C0.00083912 51.9048 0.279493 52.5764 0.774839 53.0717C1.27018 53.5671 1.94178 53.8457 2.6423 53.8466H65.3529C66.0535 53.8458 66.7251 53.5672 67.2205 53.0718C67.7159 52.5765 67.9945 51.9048 67.9952 51.2043V33.9634C67.9952 33.7298 67.9024 33.5058 67.7373 33.3406C67.5721 33.1754 67.3481 33.0827 67.1145 33.0827C66.8809 33.0827 66.6568 33.1754 66.4917 33.3406C66.3265 33.5058 66.2337 33.7298 66.2337 33.9634V51.2043C66.2337 51.4379 66.1409 51.6619 65.9757 51.8271C65.8105 51.9922 65.5865 52.085 65.3529 52.085H2.6423C2.40871 52.085 2.18468 51.9922 2.01951 51.8271C1.85433 51.6619 1.76153 51.4379 1.76153 51.2043V12.0616H66.2337V14.0627C66.2337 14.2963 66.3265 14.5203 66.4917 14.6855C66.6568 14.8506 66.8809 14.9434 67.1145 14.9434C67.3481 14.9434 67.5721 14.8506 67.7373 14.6855C67.9024 14.5203 67.9952 14.2963 67.9952 14.0627V3.24191C67.9945 2.54136 67.7159 1.86971 67.2205 1.37435C66.7251 0.87898 66.0535 0.600355 65.3529 0.599609ZM1.76153 10.3V3.24191C1.76153 3.00832 1.85433 2.78429 2.01951 2.61912C2.18468 2.45394 2.40871 2.36114 2.6423 2.36114H65.3529C65.5865 2.36114 65.8105 2.45394 65.9757 2.61912C66.1409 2.78429 66.2337 3.00832 66.2337 3.24191V10.3H1.76153Z" fill="#354BAC"/>
<path d="M7.26516 3.98975C6.75998 3.98975 6.26615 4.13955 5.84611 4.42021C5.42607 4.70087 5.09869 5.09979 4.90537 5.56651C4.71204 6.03324 4.66146 6.5468 4.76002 7.04228C4.85857 7.53775 5.10184 7.99287 5.45905 8.35008C5.81627 8.7073 6.27139 8.95056 6.76686 9.04912C7.26233 9.14767 7.7759 9.09709 8.24262 8.90377C8.70935 8.71044 9.10826 8.38306 9.38892 7.96302C9.66959 7.54298 9.81939 7.04915 9.81939 6.54397C9.81864 5.86678 9.5493 5.21753 9.07045 4.73869C8.5916 4.25984 7.94236 3.99049 7.26516 3.98975ZM7.26516 7.33666C7.10838 7.33666 6.95513 7.29017 6.82477 7.20307C6.69441 7.11597 6.59281 6.99217 6.53281 6.84732C6.47282 6.70248 6.45712 6.54309 6.4877 6.38932C6.51829 6.23556 6.59379 6.09431 6.70465 5.98345C6.81551 5.8726 6.95675 5.7971 7.11052 5.76651C7.26428 5.73593 7.42367 5.75162 7.56851 5.81162C7.71336 5.87162 7.83716 5.97322 7.92426 6.10358C8.01136 6.23393 8.05785 6.38719 8.05785 6.54397C8.05767 6.75415 7.97409 6.95566 7.82547 7.10428C7.67686 7.2529 7.47534 7.33647 7.26516 7.33666Z" fill="#354BAC"/>
<path d="M13.7847 3.98975C13.2795 3.98975 12.7857 4.13955 12.3656 4.42021C11.9456 4.70087 11.6182 5.09979 11.4249 5.56651C11.2316 6.03324 11.181 6.5468 11.2795 7.04228C11.3781 7.53775 11.6214 7.99287 11.9786 8.35008C12.3358 8.7073 12.7909 8.95056 13.2864 9.04912C13.7819 9.14767 14.2954 9.09709 14.7622 8.90377C15.2289 8.71044 15.6278 8.38306 15.9085 7.96302C16.1891 7.54298 16.3389 7.04915 16.3389 6.54397C16.3382 5.86678 16.0688 5.21753 15.59 4.73869C15.1111 4.25984 14.4619 3.99049 13.7847 3.98975ZM13.7847 7.33666C13.6279 7.33666 13.4747 7.29017 13.3443 7.20307C13.2139 7.11597 13.1123 6.99217 13.0523 6.84732C12.9923 6.70248 12.9766 6.54309 13.0072 6.38932C13.0378 6.23556 13.1133 6.09431 13.2242 5.98345C13.335 5.8726 13.4763 5.7971 13.63 5.76651C13.7838 5.73593 13.9432 5.75162 14.088 5.81162C14.2329 5.87162 14.3567 5.97322 14.4438 6.10358C14.5309 6.23393 14.5774 6.38719 14.5774 6.54397C14.5772 6.75415 14.4936 6.95566 14.345 7.10428C14.1964 7.2529 13.9949 7.33647 13.7847 7.33666Z" fill="#354BAC"/>
<path d="M20.3023 3.98975C19.7971 3.98975 19.3033 4.13955 18.8832 4.42021C18.4632 4.70087 18.1358 5.09979 17.9425 5.56651C17.7492 6.03324 17.6986 6.5468 17.7971 7.04228C17.8957 7.53775 18.1389 7.99287 18.4962 8.35008C18.8534 8.7073 19.3085 8.95056 19.804 9.04912C20.2994 9.14767 20.813 9.09709 21.2797 8.90377C21.7465 8.71044 22.1454 8.38306 22.426 7.96302C22.7067 7.54298 22.8565 7.04915 22.8565 6.54397C22.8558 5.86678 22.5864 5.21753 22.1076 4.73869C21.6287 4.25984 20.9795 3.99049 20.3023 3.98975ZM20.3023 7.33666C20.1455 7.33666 19.9922 7.29017 19.8619 7.20307C19.7315 7.11597 19.6299 6.99217 19.5699 6.84732C19.5099 6.70248 19.4942 6.54309 19.5248 6.38932C19.5554 6.23556 19.6309 6.09431 19.7418 5.98345C19.8526 5.8726 19.9939 5.7971 20.1476 5.76651C20.3014 5.73593 20.4608 5.75162 20.6056 5.81162C20.7505 5.87162 20.8743 5.97322 20.9614 6.10358C21.0485 6.23393 21.095 6.38719 21.095 6.54397C21.0948 6.75415 21.0112 6.95566 20.8626 7.10428C20.714 7.2529 20.5125 7.33647 20.3023 7.33666Z" fill="#354BAC"/>
<path d="M61.2422 5.66211H51.0253C50.7917 5.66211 50.5677 5.7549 50.4025 5.92008C50.2373 6.08526 50.1445 6.30928 50.1445 6.54288C50.1445 6.77647 50.2373 7.0005 50.4025 7.16567C50.5677 7.33085 50.7917 7.42364 51.0253 7.42364H61.2422C61.4758 7.42364 61.6998 7.33085 61.865 7.16567C62.0302 7.0005 62.123 6.77647 62.123 6.54288C62.123 6.30928 62.0302 6.08526 61.865 5.92008C61.6998 5.7549 61.4758 5.66211 61.2422 5.66211Z" fill="#354BAC"/>
<path d="M18.3788 28.1038H31.5315C31.7651 28.1038 31.9891 28.011 32.1543 27.8458C32.3195 27.6807 32.4123 27.4566 32.4123 27.2231C32.4123 26.9895 32.3195 26.7654 32.1543 26.6003C31.9891 26.4351 31.7651 26.3423 31.5315 26.3423H18.3788C18.1452 26.3423 17.9212 26.4351 17.756 26.6003C17.5908 26.7654 17.498 26.9895 17.498 27.2231C17.498 27.4566 17.5908 27.6807 17.756 27.8458C17.9212 28.011 18.1452 28.1038 18.3788 28.1038Z" fill="#354BAC"/>
<path d="M18.3788 43.6443H28.478C28.7116 43.6443 28.9357 43.5516 29.1008 43.3864C29.266 43.2212 29.3588 42.9972 29.3588 42.7636C29.3588 42.53 29.266 42.306 29.1008 42.1408C28.9357 41.9756 28.7116 41.8828 28.478 41.8828H18.3788C18.1452 41.8828 17.9212 41.9756 17.756 42.1408C17.5908 42.306 17.498 42.53 17.498 42.7636C17.498 42.9972 17.5908 43.2212 17.756 43.3864C17.9212 43.5516 18.1452 43.6443 18.3788 43.6443Z" fill="#354BAC"/>
<path d="M37.8718 42.7636C37.8718 42.53 37.779 42.306 37.6138 42.1408C37.4487 41.9756 37.2246 41.8828 36.991 41.8828H31.9999C31.7663 41.8828 31.5423 41.9756 31.3771 42.1408C31.2119 42.306 31.1191 42.53 31.1191 42.7636C31.1191 42.9972 31.2119 43.2212 31.3771 43.3864C31.5423 43.5516 31.7663 43.6443 31.9999 43.6443H36.991C37.2246 43.6443 37.4487 43.5516 37.6138 43.3864C37.779 43.2212 37.8718 42.9972 37.8718 42.7636Z" fill="#354BAC"/>
<path d="M18.3788 48.824H31.5315C31.7651 48.824 31.9891 48.7312 32.1543 48.5661C32.3195 48.4009 32.4123 48.1769 32.4123 47.9433C32.4123 47.7097 32.3195 47.4856 32.1543 47.3205C31.9891 47.1553 31.7651 47.0625 31.5315 47.0625H18.3788C18.1452 47.0625 17.9212 47.1553 17.756 47.3205C17.5908 47.4856 17.498 47.7097 17.498 47.9433C17.498 48.1769 17.5908 48.4009 17.756 48.5661C17.9212 48.7312 18.1452 48.824 18.3788 48.824Z" fill="#354BAC"/>
<path d="M18.3788 33.283H25.7184C25.952 33.283 26.176 33.1902 26.3412 33.0251C26.5064 32.8599 26.5992 32.6358 26.5992 32.4023C26.5992 32.1687 26.5064 31.9446 26.3412 31.7795C26.176 31.6143 25.952 31.5215 25.7184 31.5215H18.3788C18.1452 31.5215 17.9212 31.6143 17.756 31.7795C17.5908 31.9446 17.498 32.1687 17.498 32.4023C17.498 32.6358 17.5908 32.8599 17.756 33.0251C17.9212 33.1902 18.1452 33.283 18.3788 33.283Z" fill="#354BAC"/>
<path d="M39.9875 31.5215H29.2421C29.0085 31.5215 28.7845 31.6143 28.6193 31.7795C28.4541 31.9446 28.3613 32.1687 28.3613 32.4023C28.3613 32.6358 28.4541 32.8599 28.6193 33.0251C28.7845 33.1902 29.0085 33.283 29.2421 33.283H39.9875C40.221 33.283 40.4451 33.1902 40.6103 33.0251C40.7754 32.8599 40.8682 32.6358 40.8682 32.4023C40.8682 32.1687 40.7754 31.9446 40.6103 31.7795C40.4451 31.6143 40.221 31.5215 39.9875 31.5215Z" fill="#354BAC"/>
<path d="M18.3788 38.4642H25.7184C25.952 38.4642 26.176 38.3714 26.3412 38.2062C26.5064 38.041 26.5992 37.817 26.5992 37.5834C26.5992 37.3498 26.5064 37.1258 26.3412 36.9606C26.176 36.7954 25.952 36.7026 25.7184 36.7026H18.3788C18.1452 36.7026 17.9212 36.7954 17.756 36.9606C17.5908 37.1258 17.498 37.3498 17.498 37.5834C17.498 37.817 17.5908 38.041 17.756 38.2062C17.9212 38.3714 18.1452 38.4642 18.3788 38.4642Z" fill="#354BAC"/>
<path d="M40.8682 37.5834C40.8682 37.3498 40.7754 37.1258 40.6103 36.9606C40.4451 36.7954 40.221 36.7026 39.9875 36.7026H29.2421C29.0085 36.7026 28.7845 36.7954 28.6193 36.9606C28.4541 37.1258 28.3613 37.3498 28.3613 37.5834C28.3613 37.817 28.4541 38.041 28.6193 38.2062C28.7845 38.3714 29.0085 38.4642 29.2421 38.4642H39.9875C40.221 38.4642 40.4451 38.3714 40.6103 38.2062C40.7754 38.041 40.8682 37.817 40.8682 37.5834Z" fill="#354BAC"/>
</svg>
