<svg width="79" height="54" fill="none" xmlns="http://www.w3.org/2000/svg"><path d="M7.014 53.822a.88.88 0 01-.881-.88V11.18a.88.88 0 011.761 0v41.76a.88.88 0 01-.88.881zM60.98 53.822a.88.88 0 01-.88-.88V36.514a.88.88 0 111.761 0V52.94a.88.88 0 01-.88.881zM60.98 24.872a.88.88 0 01-.88-.881V11.18a.88.88 0 011.761 0v12.81a.88.88 0 01-.88.88z" fill="#EBE7F2"/><path d="M77.847 19.648l-6.262-6.26a.88.88 0 00-1.245 0L46.594 37.133a.881.881 0 00-.224.382l-2.48 8.741a.881.881 0 001.089 1.088l8.74-2.479a.88.88 0 00.383-.225l23.745-23.743a.88.88 0 000-1.248zm-30.19 19.789l4.14 4.14-5.777 1.64 1.637-5.78zm5.824 3.333l-5.017-5.017 18.198-18.197 5.015 5.017L53.48 42.77zm19.443-19.443l-5.017-5.017 3.055-3.055 5.017 5.016-3.055 3.056zM16.597 22.065a.88.88 0 01-.813-1.22l2.03-4.88a.88.88 0 111.627.678l-2.03 4.88a.881.881 0 01-.814.542zM21.658 22.048a.88.88 0 01-.623-1.504l1.801-1.8-1.8-1.8a.881.881 0 011.247-1.246l2.423 2.423a.881.881 0 010 1.246l-2.423 2.423a.88.88 0 01-.625.258zM13.572 22.048a.882.882 0 01-.623-.258l-2.424-2.423a.88.88 0 010-1.246l2.423-2.423a.88.88 0 011.245 1.245l-1.8 1.8 1.8 1.801a.881.881 0 01-.623 1.504h.002zM14.857 28.104h-3.709a.88.88 0 010-1.762h3.709a.88.88 0 010 1.762zM14.857 43.644h-3.709a.88.88 0 010-1.761h3.709a.881.881 0 010 1.761z" fill="#EE794F"/><path d="M65.353.6H2.643A2.645 2.645 0 000 3.242v47.962a2.645 2.645 0 002.642 2.643h62.71a2.645 2.645 0 002.643-2.643v-17.24a.881.881 0 00-1.761 0v17.24a.88.88 0 01-.881.881H2.643a.881.881 0 01-.881-.88V12.061h64.472v2a.88.88 0 001.761 0V3.243A2.645 2.645 0 0065.353.6zM1.762 10.3V3.242a.88.88 0 01.88-.88h62.71a.88.88 0 01.882.88V10.3H1.762z" fill="#354BAC"/><path d="M7.265 3.99a2.554 2.554 0 100 5.108 2.554 2.554 0 000-5.108zm0 3.347a.793.793 0 110-1.586.793.793 0 010 1.586zM13.785 3.99a2.554 2.554 0 100 5.109 2.554 2.554 0 000-5.11zm0 3.347a.793.793 0 110-1.586.793.793 0 010 1.586zM20.302 3.99a2.554 2.554 0 100 5.109 2.554 2.554 0 000-5.11zm0 3.347a.793.793 0 110-1.585.793.793 0 010 1.585zM61.242 5.662H51.025a.88.88 0 000 1.762h10.217a.88.88 0 000-1.762zM18.379 28.104H31.53a.88.88 0 000-1.762H18.38a.88.88 0 000 1.762zM18.379 43.644h10.099a.88.88 0 100-1.761h-10.1a.88.88 0 000 1.761zM37.872 42.764a.88.88 0 00-.881-.881H32a.88.88 0 000 1.761h4.991a.88.88 0 00.88-.88zM18.379 48.824H31.53a.881.881 0 000-1.761H18.38a.88.88 0 000 1.761zM18.379 33.283h7.34a.881.881 0 000-1.762h-7.34a.88.88 0 000 1.762zM39.987 31.521H29.242a.88.88 0 000 1.762h10.745a.881.881 0 000-1.762zM18.379 38.464h7.34a.88.88 0 000-1.761h-7.34a.88.88 0 000 1.761zM40.868 37.583a.881.881 0 00-.88-.88H29.241a.88.88 0 000 1.761h10.745a.88.88 0 00.881-.88z" fill="#354BAC"/></svg>