<svg width="59" height="59" fill="none" xmlns="http://www.w3.org/2000/svg"><path d="M56.636 0H2.29A2.292 2.292 0 000 2.29v41.564a2.293 2.293 0 002.29 2.29h20.96a6.137 6.137 0 01-1.747 6.05l-1.043.972h-2.294a2.748 2.748 0 000 5.496H40.76a2.748 2.748 0 000-5.496h-2.295l-1.041-.972a6.137 6.137 0 01-1.748-6.05h20.96a2.292 2.292 0 002.29-2.29V2.29A2.292 2.292 0 0056.636 0zM2.29 1.527h54.346a.763.763 0 01.764.763v6.117H1.527V2.29a.763.763 0 01.763-.763zM41.98 55.914a1.221 1.221 0 01-1.221 1.221H18.166a1.221 1.221 0 010-2.442H40.76a1.221 1.221 0 011.221 1.22zm-5.749-2.748H22.694a7.664 7.664 0 002.126-7.022h9.286a7.663 7.663 0 002.126 7.022zm20.404-8.549H2.29a.763.763 0 01-.763-.763V9.934H57.4v33.92a.764.764 0 01-.764.763z" fill="#354BAC"/><path d="M6.296 7.365a2.214 2.214 0 100-4.427 2.214 2.214 0 000 4.427zm0-2.9a.687.687 0 110 1.373.687.687 0 010-1.373zM11.946 7.365a2.214 2.214 0 100-4.427 2.214 2.214 0 000 4.427zm0-2.9a.687.687 0 110 1.373.687.687 0 010-1.373zM17.594 7.365a2.214 2.214 0 100-4.427 2.214 2.214 0 000 4.427zm0-2.9a.687.687 0 110 1.374.687.687 0 010-1.374zM44.218 5.915h8.855a.763.763 0 000-1.527h-8.855a.763.763 0 100 1.527z" fill="#354BAC"/><path d="M46.662 17.948H12.517a.763.763 0 01-.763-.764V12.91a.763.763 0 01.763-.763h34.145a.763.763 0 01.763.763v4.274a.764.764 0 01-.763.764zM13.28 16.42h32.618v-2.748H13.28v2.748zM53.785 14.36h-4.02a.764.764 0 010-1.526h4.02a.764.764 0 010 1.526zM53.785 17.26h-4.02a.763.763 0 010-1.526h4.02a.763.763 0 010 1.527z" fill="#EE794F"/><path d="M53.786 31.204H5.138a.763.763 0 01-.763-.764v-9.973a.763.763 0 01.763-.764h48.648a.763.763 0 01.763.764v9.973a.763.763 0 01-.763.764zM5.902 29.677h47.12V21.23H5.902v8.447z" fill="#EBE7F2"/><path d="M19.038 41.722h-13.9a.764.764 0 01-.763-.763v-7.16a.763.763 0 01.763-.763h13.9a.764.764 0 01.763.763v7.16a.763.763 0 01-.763.763zM5.902 40.196h12.372v-5.634H5.902v5.634zM36.413 41.722h-13.9a.763.763 0 01-.763-.763v-7.16a.763.763 0 01.763-.763h13.9a.764.764 0 01.763.763v7.16a.763.763 0 01-.764.763zm-13.136-1.526h12.372v-5.634H23.277v5.634zM53.786 41.722h-13.9a.764.764 0 01-.763-.763v-7.16a.764.764 0 01.763-.763h13.9a.763.763 0 01.763.763v7.16a.763.763 0 01-.763.763zM40.65 40.196h12.372v-5.634H40.65v5.634zM7.276 17.948a2.9 2.9 0 110-5.802 2.9 2.9 0 010 5.802zm0-4.275a1.374 1.374 0 100 2.748 1.374 1.374 0 000-2.748z" fill="#EE794F"/></svg>