<svg width="70" height="54" fill="none" xmlns="http://www.w3.org/2000/svg"><path d="M27.452 40.151a3.105 3.105 0 11-.001-6.21 3.105 3.105 0 010 6.21zm0-4.548a1.442 1.442 0 100 2.885 1.442 1.442 0 000-2.885zM56.067 50.664a3.105 3.105 0 110-6.21 3.105 3.105 0 010 6.21zm0-4.548a1.442 1.442 0 100 2.885 1.442 1.442 0 000-2.885zM61.754 33.46H50.41a.832.832 0 01-.832-.832V21.28a.832.832 0 01.832-.831h11.347a.832.832 0 01.831.831v11.347a.831.831 0 01-.834.832zm-10.515-1.664h9.683v-9.683h-9.68l-.003 9.683z" fill="#EE794F"/><path d="M66.835 10.648H45.296a2.692 2.692 0 00-2.689 2.689v37.879a2.692 2.692 0 002.689 2.689h21.54a2.692 2.692 0 002.688-2.69V13.338a2.692 2.692 0 00-2.689-2.69zm1.025 40.568a1.026 1.026 0 01-1.025 1.025H45.296a1.026 1.026 0 01-1.025-1.025v-37.88a1.027 1.027 0 011.025-1.024h21.54a1.026 1.026 0 011.024 1.025v37.879z" fill="#354BAC"/><path d="M40.114 41.926H2.495a.832.832 0 01-.832-.832V2.496a.832.832 0 01.832-.832h49.911a.832.832 0 01.832.832v5.24a.832.832 0 001.664 0v-5.24A2.498 2.498 0 0052.407 0H2.496A2.498 2.498 0 000 2.496v38.598a2.498 2.498 0 002.496 2.495h37.618a.832.832 0 000-1.663zM58.093 25.099l-2.684 2.683-1.312-1.312a.832.832 0 00-1.176 1.177l1.9 1.9a.832.832 0 001.177 0l3.272-3.272a.832.832 0 10-1.177-1.176z" fill="#354BAC"/><path d="M38.867 19.822v-2.228a1.815 1.815 0 00-1.36-1.756l-1.926-.497 1.011-1.714a1.815 1.815 0 00-.28-2.204L34.736 9.85a1.815 1.815 0 00-2.205-.28l-1.713 1.011-.497-1.929a1.814 1.814 0 00-1.756-1.359h-2.23a1.814 1.814 0 00-1.755 1.36l-.496 1.926-1.714-1.012a1.814 1.814 0 00-2.204.28l-1.575 1.576a1.815 1.815 0 00-.28 2.204l1.011 1.713-1.927.5a1.814 1.814 0 00-1.36 1.756v2.228a1.814 1.814 0 001.36 1.756l1.927.497-1.011 1.714a1.815 1.815 0 00.28 2.203l1.575 1.575a1.814 1.814 0 002.205.28l1.713-1.01.497 1.927a1.815 1.815 0 001.756 1.36h2.23a1.815 1.815 0 001.756-1.361l.496-1.927 1.715 1.012a1.814 1.814 0 002.203-.28l1.575-1.576a1.815 1.815 0 00.28-2.204l-1.011-1.713 1.927-.497a1.814 1.814 0 001.359-1.757zm-1.664 0a.152.152 0 01-.112.145l-2.998.773a.833.833 0 00-.509 1.228l1.573 2.665a.151.151 0 01-.023.183l-1.576 1.575a.15.15 0 01-.181.024L30.71 24.84a.83.83 0 00-1.228.51l-.772 2.994a.15.15 0 01-.146.113h-2.23a.15.15 0 01-.145-.112l-.772-2.997a.831.831 0 00-1.229-.509l-2.664 1.573a.151.151 0 01-.183-.023l-1.574-1.574a.151.151 0 01-.024-.183l1.573-2.665a.831.831 0 00-.508-1.228l-2.997-.773a.15.15 0 01-.113-.145v-2.228a.15.15 0 01.112-.146l2.998-.772a.83.83 0 00.508-1.229l-1.572-2.664a.15.15 0 01.022-.183l1.576-1.576a.15.15 0 01.182-.023l2.665 1.573a.832.832 0 001.229-.509l.771-2.996a.15.15 0 01.146-.113h2.23a.15.15 0 01.145.112l.772 2.997a.834.834 0 001.229.51l2.664-1.573a.15.15 0 01.183.022l1.576 1.575a.15.15 0 01.023.183l-1.573 2.665a.831.831 0 00.509 1.229l2.998.773a.15.15 0 01.112.145l-.001 2.228z" fill="#354BAC"/><path d="M27.45 14.461a4.247 4.247 0 100 8.495 4.247 4.247 0 000-8.495zm0 6.83a2.583 2.583 0 110-5.165 2.583 2.583 0 010 5.165z" fill="#354BAC"/></svg>