<svg width="68" height="54" fill="none" xmlns="http://www.w3.org/2000/svg"><path d="M7.007 53.7a.88.88 0 01-.88-.88V11.101a.88.88 0 111.76 0v41.717a.88.88 0 01-.88.88zM60.919 53.7a.88.88 0 01-.88-.88V11.101a.88.88 0 111.76 0v41.717a.88.88 0 01-.88.88z" fill="#EBE7F2"/><path d="M65.286.531H2.64A2.642 2.642 0 000 3.171v47.913a2.643 2.643 0 002.64 2.64h62.646a2.643 2.643 0 002.64-2.64V3.17a2.643 2.643 0 00-2.64-2.64zM2.64 2.291h62.646a.88.88 0 01.88.88v7.05H1.76v-7.05a.88.88 0 01.88-.88zm62.646 49.673H2.64a.88.88 0 01-.88-.88V11.98h64.406v39.102a.88.88 0 01-.88.88z" fill="#354BAC"/><path d="M7.259 9.021a2.552 2.552 0 100-5.103 2.552 2.552 0 000 5.103zm0-3.343a.792.792 0 110 1.583.792.792 0 010-1.583zM13.77 9.021a2.552 2.552 0 100-5.103 2.552 2.552 0 000 5.103zm0-3.343a.792.792 0 110 1.583.792.792 0 010-1.583zM20.282 9.021a2.552 2.552 0 100-5.103 2.552 2.552 0 000 5.103zm0-3.343a.792.792 0 110 1.583.792.792 0 010-1.583zM50.972 7.348h10.206a.88.88 0 000-1.76H50.972a.88.88 0 100 1.76z" fill="#354BAC"/><path d="M35.169 44.184H32.76a1.94 1.94 0 01-1.88-1.455l-.543-2.107-1.873 1.105a1.942 1.942 0 01-2.358-.3l-1.703-1.702a1.941 1.941 0 01-.3-2.358l1.106-1.874-2.107-.543a1.942 1.942 0 01-1.457-1.88v-2.407a1.942 1.942 0 011.455-1.88l2.108-.543-1.106-1.874a1.942 1.942 0 01.3-2.358l1.702-1.702a1.942 1.942 0 012.358-.3l1.875 1.106.543-2.107a1.942 1.942 0 011.88-1.456h2.408a1.941 1.941 0 011.879 1.455l.543 2.108 1.874-1.106a1.941 1.941 0 012.358.3l1.702 1.702a1.941 1.941 0 01.3 2.358l-1.106 1.875 2.107.543a1.942 1.942 0 011.457 1.879v2.407a1.942 1.942 0 01-1.455 1.88l-2.108.543 1.106 1.873a1.942 1.942 0 01-.3 2.358l-1.703 1.703a1.941 1.941 0 01-2.358.3l-1.874-1.106-.543 2.107a1.941 1.941 0 01-1.88 1.456zm-4.27-5.794a.88.88 0 01.851.66l.835 3.24a.182.182 0 00.176.135h2.408a.182.182 0 00.175-.136l.835-3.238a.88.88 0 011.299-.538l2.881 1.7a.183.183 0 00.22-.029l1.703-1.702a.183.183 0 00.028-.221l-1.7-2.88a.88.88 0 01.538-1.3l3.24-.834a.182.182 0 00.135-.176v-2.408a.182.182 0 00-.137-.176l-3.238-.834a.88.88 0 01-.538-1.3l1.7-2.88a.18.18 0 00-.028-.22L40.58 23.55a.183.183 0 00-.221-.028l-2.88 1.7a.878.878 0 01-1.3-.538l-.834-3.24a.182.182 0 00-.176-.135H32.76a.182.182 0 00-.176.136l-.835 3.238a.88.88 0 01-1.3.538l-2.88-1.7a.183.183 0 00-.22.028l-1.702 1.703a.182.182 0 00-.029.22l1.7 2.88a.88.88 0 01-.538 1.3l-3.238.835a.182.182 0 00-.135.176v2.407a.182.182 0 00.136.176l3.238.835a.88.88 0 01.538 1.299l-1.7 2.88a.183.183 0 00.028.221l1.703 1.703a.182.182 0 00.221.028l2.88-1.7a.878.878 0 01.446-.122z" fill="#EE794F"/><path d="M33.961 36.437a4.57 4.57 0 110-9.141 4.57 4.57 0 010 9.14zm0-7.381a2.81 2.81 0 100 5.621 2.81 2.81 0 000-5.621zM21.392 48.133c-.142 0-.285-.02-.422-.06-1.965-.586-3.484-1.578-4.516-2.95s-1.56-3.173-1.56-5.34v-3.25c0-2.154-.841-2.33-1.858-2.33a1.542 1.542 0 01-1.54-1.54v-1.53a1.542 1.542 0 011.54-1.542c1.017 0 1.859-.173 1.859-2.3v-3.366c.011-2.129.534-3.902 1.554-5.275 1.02-1.373 2.54-2.373 4.514-2.969a1.54 1.54 0 011.908.994l.383 1.163a1.549 1.549 0 01-.465 1.657 1.528 1.528 0 01-.529.292c-1.081.346-2.519 1.166-2.519 4.286v3.132c0 1.984-.533 3.563-1.587 4.706 1.056 1.15 1.587 2.715 1.587 4.666v3.356c.03 2.195.826 3.44 2.581 4.024a1.554 1.554 0 01.899.788l.002.005a1.552 1.552 0 01.06 1.197l-.427 1.176a1.567 1.567 0 01-1.464 1.01zm-8.135-15.685c2.255.082 3.397 1.455 3.397 4.084v3.252c0 1.776.407 3.217 1.207 4.282a6.674 6.674 0 003.412 2.258l.282-.772c-2.332-.862-3.532-2.745-3.572-5.607v-3.369c0-1.735-.517-3.034-1.535-3.862l-.153-.124a.88.88 0 01.005-1.37l.154-.123c1.015-.812 1.53-2.122 1.53-3.892v-3.132c0-3.073 1.187-5.053 3.532-5.891l-.246-.751a6.67 6.67 0 00-3.406 2.27c-.791 1.066-1.196 2.489-1.207 4.23v3.363c0 2.61-1.143 3.974-3.398 4.056l-.002 1.098zM46.514 48.139a1.533 1.533 0 01-1.459-1.06l-.383-1.16a1.549 1.549 0 01.466-1.659 1.53 1.53 0 01.528-.292c1.081-.345 2.518-1.166 2.518-4.285v-3.132c0-1.984.534-3.563 1.588-4.707-1.056-1.15-1.588-2.714-1.588-4.665v-3.36c-.03-2.194-.825-3.44-2.58-4.024a1.54 1.54 0 01-.96-1.987l.426-1.176a1.564 1.564 0 011.887-.95c1.964.584 3.484 1.577 4.514 2.948 1.03 1.372 1.56 3.173 1.56 5.34v3.251c0 2.154.841 2.33 1.858 2.33a1.542 1.542 0 011.54 1.54v1.527a1.542 1.542 0 01-1.54 1.54c-1.017 0-1.858.173-1.858 2.3v3.368c-.011 2.129-.534 3.901-1.554 5.274-1.02 1.373-2.54 2.373-4.513 2.97h-.006a1.573 1.573 0 01-.444.069zm-.103-2.566l.247.75a6.67 6.67 0 003.405-2.27c.792-1.065 1.197-2.488 1.207-4.23v-3.362c0-2.61 1.143-3.974 3.399-4.056v-1.1c-2.255-.082-3.399-1.455-3.399-4.084v-3.252c0-1.776-.406-3.217-1.206-4.282a6.677 6.677 0 00-3.412-2.258l-.281.772c2.331.862 3.532 2.745 3.57 5.607v3.369c0 1.734.517 3.034 1.537 3.862l.151.123a.882.882 0 01-.004 1.373l-.154.123c-1.015.812-1.53 2.122-1.53 3.892v3.132c.003 3.072-1.185 5.05-3.53 5.89v.001z" fill="#EE794F"/></svg>