<svg width="41" height="65" viewBox="0 0 41 65" fill="none" xmlns="http://www.w3.org/2000/svg">
<path d="M39.2612 9.33601H0.844734C0.620696 9.33601 0.405834 9.24701 0.247416 9.0886C0.0889978 8.93018 0 8.71532 0 8.49128C0 8.26724 0.0889978 8.05238 0.247416 7.89396C0.405834 7.73554 0.620696 7.64655 0.844734 7.64655H39.2612C39.4852 7.64655 39.7001 7.73554 39.8585 7.89396C40.0169 8.05238 40.1059 8.26724 40.1059 8.49128C40.1059 8.71532 40.0169 8.93018 39.8585 9.0886C39.7001 9.24701 39.4852 9.33601 39.2612 9.33601Z" fill="#354BAC"/>
<path d="M36.1326 0H3.97329C2.91989 0.00125192 1.91 0.420266 1.16513 1.16513C0.420268 1.91 0.00125192 2.91989 0 3.97329V60.9901C0.00125192 62.0435 0.420268 63.0534 1.16513 63.7983C1.91 64.5431 2.91989 64.9622 3.97329 64.9634H36.1326C37.186 64.9622 38.1959 64.5431 38.9408 63.7983C39.6857 63.0534 40.1047 62.0435 40.1059 60.9901V3.97329C40.1047 2.91989 39.6857 1.91 38.9408 1.16513C38.1959 0.420266 37.186 0.00125192 36.1326 0ZM38.4165 60.9898C38.4157 61.5953 38.1749 62.1758 37.7468 62.6039C37.3186 63.032 36.7381 63.2729 36.1326 63.2736H3.97329C3.3678 63.2729 2.78732 63.032 2.35917 62.6039C1.93103 62.1758 1.69018 61.5953 1.68947 60.9898V3.97329C1.69018 3.3678 1.93103 2.78732 2.35917 2.35917C2.78732 1.93103 3.3678 1.69018 3.97329 1.68947H36.1326C36.7381 1.69018 37.3186 1.93103 37.7468 2.35917C38.1749 2.78732 38.4157 3.3678 38.4165 3.97329V60.9898Z" fill="#354BAC"/>
<path d="M20.0518 60.0338C19.2006 60.0338 18.3686 59.7814 17.6609 59.3085C16.9531 58.8357 16.4015 58.1636 16.0757 57.3772C15.75 56.5909 15.6647 55.7256 15.8307 54.8908C15.9966 54.056 16.4064 53.2891 17.0082 52.6872C17.61 52.0852 18.3768 51.6753 19.2116 51.5091C20.0463 51.3429 20.9116 51.428 21.6981 51.7536C22.4845 52.0792 23.1567 52.6306 23.6297 53.3383C24.1028 54.0459 24.3553 54.8779 24.3555 55.729C24.3545 56.8702 23.9007 57.9644 23.0939 58.7714C22.287 59.5784 21.193 60.0324 20.0518 60.0338ZM20.0518 53.1157C19.5347 53.1157 19.0293 53.2691 18.5994 53.5563C18.1695 53.8436 17.8344 54.2519 17.6365 54.7296C17.4386 55.2073 17.3869 55.7329 17.4877 56.24C17.5886 56.7472 17.8376 57.213 18.2032 57.5786C18.5688 57.9442 19.0347 58.1932 19.5418 58.2941C20.0489 58.3949 20.5745 58.3432 21.0522 58.1453C21.5299 57.9474 21.9382 57.6124 22.2255 57.1824C22.5128 56.7525 22.6661 56.2471 22.6661 55.73C22.6653 55.0369 22.3896 54.3724 21.8995 53.8823C21.4094 53.3922 20.7449 53.1165 20.0518 53.1157Z" fill="#EE794F"/>
<path d="M17.5449 39.9939C17.4939 39.9939 17.4436 39.9939 17.3912 39.9902C16.975 39.9686 16.5679 39.8602 16.1961 39.6721C15.8242 39.484 15.4957 39.2202 15.2317 38.8978L9.21248 31.5408C8.96399 31.2371 8.77776 30.8874 8.66443 30.5116C8.5511 30.1359 8.51288 29.7415 8.55196 29.3511C8.63089 28.5624 9.01986 27.8374 9.63332 27.3356C10.2468 26.8337 11.0345 26.5962 11.8231 26.6751C12.6117 26.754 13.3367 27.143 13.8386 27.7564L17.7662 32.5572L26.467 23.8568C26.7445 23.5793 27.0739 23.3592 27.4365 23.209C27.799 23.0588 28.1876 22.9815 28.5801 22.9814C28.9725 22.9814 29.3611 23.0587 29.7237 23.2089C30.0863 23.359 30.4157 23.5792 30.6932 23.8566C30.9707 24.1341 31.1909 24.4635 31.341 24.8261C31.4912 25.1887 31.5686 25.5773 31.5686 25.9697C31.5686 26.3621 31.4913 26.7507 31.3411 27.1133C31.191 27.4759 30.9709 27.8053 30.6934 28.0828L19.6578 39.1184C19.381 39.3969 19.0518 39.6176 18.6891 39.7679C18.3264 39.9182 17.9375 39.995 17.5449 39.9939ZM11.5233 28.3494C11.2776 28.3498 11.037 28.4198 10.8294 28.5515C10.6219 28.6831 10.456 28.8709 10.3509 29.0931C10.2459 29.3152 10.206 29.5627 10.236 29.8066C10.2659 30.0505 10.3645 30.2809 10.5201 30.4711L16.5387 37.828C16.6537 37.9685 16.7969 38.0833 16.9589 38.1651C17.121 38.2469 17.2984 38.2939 17.4797 38.3031H17.5443C17.7148 38.3037 17.8838 38.2704 18.0414 38.2051C18.199 38.1398 18.3421 38.044 18.4623 37.923L29.4982 26.8874C29.6219 26.7674 29.7205 26.624 29.7883 26.4656C29.856 26.3072 29.8916 26.1369 29.8929 25.9646C29.8942 25.7923 29.8612 25.6214 29.7959 25.462C29.7305 25.3026 29.6341 25.1577 29.5122 25.0359C29.3904 24.9141 29.2455 24.8177 29.086 24.7524C28.9266 24.6872 28.7557 24.6542 28.5834 24.6556C28.4111 24.657 28.2408 24.6926 28.0824 24.7604C27.924 24.8282 27.7807 24.9269 27.6608 25.0506L18.3011 34.4102C18.2177 34.4935 18.1177 34.5584 18.0077 34.6008C17.8976 34.6431 17.7799 34.6619 17.6622 34.6561C17.5444 34.6502 17.4292 34.6197 17.3239 34.5666C17.2186 34.5135 17.1257 34.4389 17.0509 34.3477L12.5316 28.8245C12.424 28.6921 12.2912 28.5823 12.1408 28.5015C11.9905 28.4208 11.8256 28.3707 11.6558 28.3542C11.6108 28.3515 11.5669 28.3494 11.5233 28.3494Z" fill="#EE794F"/>
<path d="M9.38187 60.0338C8.53072 60.0338 7.69867 59.7814 6.99094 59.3085C6.28322 58.8357 5.7316 58.1636 5.40583 57.3772C5.08006 56.5909 4.99477 55.7256 5.16075 54.8908C5.32673 54.056 5.73652 53.2891 6.33831 52.6872C6.9401 52.0852 7.70686 51.6753 8.54163 51.5091C9.37641 51.3429 10.2417 51.428 11.0281 51.7536C11.8146 52.0792 12.4868 52.6306 12.9598 53.3383C13.4328 54.0459 13.6854 54.8779 13.6856 55.729C13.6846 56.8702 13.2309 57.9644 12.4241 58.7715C11.6172 59.5785 10.5231 60.0325 9.38187 60.0338ZM9.38187 53.1157C8.86482 53.1157 8.35937 53.2691 7.92946 53.5563C7.49954 53.8436 7.16446 54.2519 6.96659 54.7296C6.76872 55.2073 6.71695 55.7329 6.81783 56.24C6.9187 56.7472 7.16768 57.213 7.5333 57.5786C7.89891 57.9442 8.36473 58.1932 8.87185 58.2941C9.37897 58.3949 9.90462 58.3432 10.3823 58.1453C10.86 57.9474 11.2683 57.6124 11.5556 57.1824C11.8428 56.7525 11.9962 56.2471 11.9962 55.73C11.9954 55.0369 11.7198 54.3724 11.2297 53.8822C10.7395 53.3921 10.075 53.1165 9.38187 53.1157Z" fill="#EE794F"/>
<path d="M30.724 60.0338C29.8728 60.0338 29.0408 59.7815 28.333 59.3087C27.6252 58.8359 27.0735 58.1638 26.7477 57.3775C26.4219 56.5911 26.3366 55.7258 26.5025 54.891C26.6684 54.0561 27.0782 53.2893 27.68 52.6873C28.2818 52.0853 29.0485 51.6753 29.8833 51.5091C30.7181 51.3429 31.5834 51.428 32.3699 51.7536C33.1563 52.0791 33.8286 52.6306 34.3016 53.3382C34.7746 54.0458 35.0272 54.8778 35.0274 55.729C35.0263 56.8701 34.5727 57.9642 33.7659 58.7713C32.9591 59.5783 31.8651 60.0323 30.724 60.0338ZM30.724 53.1157C30.2069 53.1157 29.7015 53.2689 29.2715 53.5562C28.8415 53.8434 28.5064 54.2517 28.3085 54.7293C28.1106 55.207 28.0587 55.7327 28.1596 56.2398C28.2604 56.747 28.5094 57.2128 28.875 57.5785C29.2406 57.9441 29.7064 58.1931 30.2135 58.294C30.7207 58.3949 31.2463 58.3432 31.724 58.1453C32.2018 57.9475 32.6101 57.6124 32.8973 57.1825C33.1846 56.7525 33.338 56.2471 33.338 55.73C33.3372 55.0369 33.0616 54.3725 32.5716 53.8824C32.0815 53.3922 31.4171 53.1165 30.724 53.1157Z" fill="#EE794F"/>
<path d="M10.5074 5.53468H5.24708C5.02304 5.53468 4.80818 5.44568 4.64976 5.28727C4.49134 5.12885 4.40234 4.91399 4.40234 4.68995C4.40234 4.46591 4.49134 4.25105 4.64976 4.09263C4.80818 3.93421 5.02304 3.84521 5.24708 3.84521H10.5074C10.7314 3.84521 10.9463 3.93421 11.1047 4.09263C11.2631 4.25105 11.3521 4.46591 11.3521 4.68995C11.3521 4.91399 11.2631 5.12885 11.1047 5.28727C10.9463 5.44568 10.7314 5.53468 10.5074 5.53468Z" fill="#EE794F"/>
<path d="M24.9512 5.53468H23.5107C23.2867 5.53468 23.0719 5.44568 22.9134 5.28727C22.755 5.12885 22.666 4.91399 22.666 4.68995C22.666 4.46591 22.755 4.25105 22.9134 4.09263C23.0719 3.93421 23.2867 3.84521 23.5107 3.84521H24.9512C25.1752 3.84521 25.3901 3.93421 25.5485 4.09263C25.7069 4.25105 25.7959 4.46591 25.7959 4.68995C25.7959 4.91399 25.7069 5.12885 25.5485 5.28727C25.3901 5.44568 25.1752 5.53468 24.9512 5.53468Z" fill="#EE794F"/>
<path d="M30.1055 5.53468H28.665C28.441 5.53468 28.2261 5.44568 28.0677 5.28727C27.9093 5.12885 27.8203 4.91399 27.8203 4.68995C27.8203 4.46591 27.9093 4.25105 28.0677 4.09263C28.2261 3.93421 28.441 3.84521 28.665 3.84521H30.1055C30.3295 3.84521 30.5444 3.93421 30.7028 4.09263C30.8612 4.25105 30.9502 4.46591 30.9502 4.68995C30.9502 4.91399 30.8612 5.12885 30.7028 5.28727C30.5444 5.44568 30.3295 5.53468 30.1055 5.53468Z" fill="#EE794F"/>
<path d="M35.2578 5.53468H33.8174C33.5934 5.53468 33.3785 5.44568 33.2201 5.28727C33.0617 5.12885 32.9727 4.91399 32.9727 4.68995C32.9727 4.46591 33.0617 4.25105 33.2201 4.09263C33.3785 3.93421 33.5934 3.84521 33.8174 3.84521H35.2578C35.4819 3.84521 35.6967 3.93421 35.8551 4.09263C36.0136 4.25105 36.1026 4.46591 36.1026 4.68995C36.1026 4.91399 36.0136 5.12885 35.8551 5.28727C35.6967 5.44568 35.4819 5.53468 35.2578 5.53468Z" fill="#EE794F"/>
<path d="M20.0517 45.324C17.1107 45.3241 14.2358 44.4521 11.7904 42.8182C9.34507 41.1843 7.43913 38.862 6.31363 36.145C5.18813 33.4279 4.89361 30.4381 5.46732 27.5536C6.04104 24.6692 7.45721 22.0196 9.53676 19.94C11.6163 17.8604 14.2658 16.4442 17.1503 15.8704C20.0347 15.2966 23.0245 15.5911 25.7416 16.7165C28.4587 17.842 30.7811 19.7478 32.415 22.1932C34.0489 24.6385 34.921 27.5134 34.921 30.4543C34.9166 34.3966 33.3486 38.1762 30.5611 40.9638C27.7735 43.7515 23.9939 45.3196 20.0517 45.324ZM20.0517 17.2741C17.4448 17.2741 14.8966 18.047 12.729 19.4952C10.5615 20.9435 8.87213 23.0019 7.87449 25.4103C6.87686 27.8186 6.6158 30.4687 7.12433 33.0255C7.63285 35.5822 8.88812 37.9307 10.7314 39.774C12.5747 41.6174 14.9231 42.8727 17.4799 43.3813C20.0366 43.8899 22.6867 43.6289 25.0951 42.6313C27.5035 41.6337 29.562 39.9444 31.0102 37.7769C32.4585 35.6094 33.2315 33.0612 33.2315 30.4543C33.2277 26.96 31.8379 23.6098 29.367 21.1389C26.8962 18.668 23.546 17.2781 20.0517 17.2741Z" fill="#354BAC"/>
</svg>
