<svg width="41" height="65" fill="none" xmlns="http://www.w3.org/2000/svg"><path d="M39.261 9.336H.845a.845.845 0 010-1.69H39.26a.845.845 0 010 1.69z" fill="#354BAC"/><path d="M36.133 0H3.973A3.978 3.978 0 000 3.973V60.99a3.978 3.978 0 003.973 3.973h32.16a3.978 3.978 0 003.973-3.973V3.973A3.978 3.978 0 0036.133 0zm2.283 60.99a2.287 2.287 0 01-2.283 2.284H3.973A2.287 2.287 0 011.69 60.99V3.973A2.287 2.287 0 013.973 1.69h32.16a2.287 2.287 0 012.283 2.284V60.99z" fill="#354BAC"/><path d="M20.052 60.034a4.303 4.303 0 110-8.607 4.303 4.303 0 010 8.607zm0-6.918a2.615 2.615 0 100 5.229 2.615 2.615 0 000-5.23zM17.545 39.994c-.051 0-.101 0-.154-.004a2.99 2.99 0 01-2.16-1.092L9.213 31.54a2.987 2.987 0 114.627-3.785l3.927 4.801 8.701-8.7a2.988 2.988 0 014.226 4.226L19.658 39.118a2.967 2.967 0 01-2.113.876zm-6.022-11.645a1.3 1.3 0 00-1.003 2.122l6.019 7.357a1.3 1.3 0 00.94.475h.065a1.287 1.287 0 00.918-.38l11.036-11.036a1.3 1.3 0 00-.412-2.135 1.3 1.3 0 00-1.425.299l-9.36 9.36a.845.845 0 01-1.25-.063l-4.52-5.523a1.29 1.29 0 00-1.008-.476zM9.382 60.034a4.303 4.303 0 110-8.607 4.303 4.303 0 010 8.607zm0-6.918a2.615 2.615 0 100 5.23 2.615 2.615 0 000-5.23zM30.724 60.034a4.304 4.304 0 110-8.609 4.304 4.304 0 010 8.609zm0-6.918a2.614 2.614 0 100 5.228 2.614 2.614 0 000-5.228zM10.507 5.535h-5.26a.845.845 0 010-1.69h5.26a.845.845 0 010 1.69zM24.951 5.535h-1.44a.845.845 0 010-1.69h1.44a.845.845 0 010 1.69zM30.105 5.535h-1.44a.845.845 0 010-1.69h1.44a.845.845 0 010 1.69zM35.258 5.535h-1.44a.845.845 0 010-1.69h1.44a.845.845 0 110 1.69z" fill="#EE794F"/><path d="M20.052 45.324a14.87 14.87 0 1114.869-14.87 14.887 14.887 0 01-14.87 14.87zm0-28.05a13.181 13.181 0 1013.18 13.18 13.194 13.194 0 00-13.18-13.18z" fill="#354BAC"/></svg>