<svg width="56" height="56" fill="none" xmlns="http://www.w3.org/2000/svg"><path d="M30.63 48.5a.772.772 0 01-.547-.227l-3.37-3.37a.774.774 0 111.094-1.095l3.37 3.37a.774.774 0 01-.547 1.321z" fill="#EE794F"/><path d="M41.25 46.185a.774.774 0 00-.775.774v6.72a.774.774 0 01-.774.773H2.323a.774.774 0 01-.774-.774V14.661h12.338a.774.774 0 00.775-.774V1.548h25.04a.774.774 0 01.773.774V20.57a.774.774 0 001.548 0V2.322A2.325 2.325 0 0039.701 0H14.53a2.307 2.307 0 00-1.64.681L.68 12.886A2.337 2.337 0 000 14.526v39.152A2.325 2.325 0 002.322 56h37.38a2.325 2.325 0 002.321-2.322v-6.719a.774.774 0 00-.774-.774zM13.113 2.643v10.47H2.644l10.47-10.47z" fill="#354BAC"/><path d="M54.13 22.264l-1.407-1.406a4.756 4.756 0 00-6.719 0L29.082 37.781c-.5.5-.874 1.112-1.091 1.785l-2.473 7.678a1.769 1.769 0 002.226 2.226l7.678-2.472a4.484 4.484 0 001.786-1.092l14.189-14.19 2.732-2.732a4.757 4.757 0 000-6.72zM36.66 44.263l-5.936-5.935L43.82 25.232l5.935 5.936L36.66 44.263zm-1.714 1.26l-7.679 2.472a.22.22 0 01-.281-.158.22.22 0 01.004-.119l2.473-7.678c.061-.188.143-.37.241-.54l5.781 5.78a2.93 2.93 0 01-.54.243zm18.088-17.635l-2.185 2.185-5.934-5.935 2.186-2.185a3.207 3.207 0 014.529 0l1.406 1.406a3.207 3.207 0 01-.001 4.53h-.001z" fill="#354BAC"/><path d="M26.284 33.28V31.23a1.678 1.678 0 00-1.256-1.624l-1.76-.453.924-1.566a1.676 1.676 0 00-.26-2.037l-1.448-1.449a1.678 1.678 0 00-2.037-.259l-1.565.924-.454-1.76a1.677 1.677 0 00-1.623-1.257h-2.048a1.678 1.678 0 00-1.625 1.258l-.453 1.76-1.566-.925a1.678 1.678 0 00-2.037.26L7.628 25.55a1.677 1.677 0 00-.259 2.037l.924 1.566-1.761.453a1.679 1.679 0 00-1.257 1.624v2.048a1.677 1.677 0 001.258 1.624l1.76.454-.924 1.565a1.678 1.678 0 00.259 2.037l1.449 1.449a1.68 1.68 0 002.037.259l1.565-.924.454 1.76a1.677 1.677 0 001.624 1.257h2.045a1.678 1.678 0 001.624-1.258l.454-1.759 1.565.924a1.678 1.678 0 002.037-.26l1.448-1.448a1.677 1.677 0 00.26-2.038l-.924-1.564 1.76-.454a1.676 1.676 0 001.258-1.624zm-1.548 0a.128.128 0 01-.096.123l-2.755.71a.774.774 0 00-.474 1.143l1.447 2.45a.13.13 0 01-.02.157l-1.448 1.449a.13.13 0 01-.157.02l-2.45-1.446a.772.772 0 00-1.144.473l-.71 2.756a.13.13 0 01-.125.097h-2.048a.13.13 0 01-.124-.096l-.71-2.756a.774.774 0 00-1.143-.473l-2.452 1.446a.13.13 0 01-.157-.02L8.72 37.864a.129.129 0 01-.02-.154l1.446-2.451a.774.774 0 00-.473-1.144l-2.756-.71a.129.129 0 01-.096-.123v-2.048a.13.13 0 01.096-.126l2.755-.71a.773.773 0 00.474-1.143L8.7 26.805a.13.13 0 01.02-.157L10.17 25.2a.13.13 0 01.156-.02l2.45 1.446a.773.773 0 001.144-.474l.71-2.755a.129.129 0 01.124-.097h2.05a.129.129 0 01.123.096l.71 2.756a.775.775 0 001.143.473l2.45-1.446a.13.13 0 01.157.02l1.449 1.448a.13.13 0 01.02.155l-1.447 2.451a.774.774 0 00.473 1.143l2.756.71a.13.13 0 01.096.125l.003 2.048z" fill="#EE794F"/><path d="M15.78 28.34a3.915 3.915 0 100 7.83 3.915 3.915 0 000-7.83zm0 6.28a2.366 2.366 0 11-.001-4.732 2.366 2.366 0 010 4.732z" fill="#354BAC"/><path d="M33.145 12.72H22.56a.774.774 0 010-1.549h10.584a.774.774 0 010 1.549zM33.145 17.474H22.56a.774.774 0 010-1.549h10.584a.774.774 0 010 1.549z" fill="#EE794F"/></svg>