<svg width="41" height="41" fill="none" xmlns="http://www.w3.org/2000/svg"><rect width="41" height="41" rx="20.5" fill="#fff"/><path d="M27.434 19.975H14.566c-.312 0-.565.235-.565.525 0 .29.253.525.566.525h12.868c.313 0 .566-.235.566-.525 0-.29-.253-.525-.566-.525zM27.434 15.992H14.566c-.312 0-.565.235-.565.525 0 .29.253.525.566.525h12.868c.313 0 .566-.235.566-.525 0-.29-.253-.525-.566-.525zM27.434 23.958H14.566c-.312 0-.565.235-.565.525 0 .29.253.525.566.525h12.868c.313 0 .566-.235.566-.525 0-.29-.253-.525-.566-.525z" fill="#354BAC"/></svg>