<svg width="100" height="100" viewBox="0 0 100 100" fill="none" xmlns="http://www.w3.org/2000/svg">
<path d="M-3.25826e-06 50C-3.83228e-06 56.5661 1.29328 63.0679 3.80602 69.1342C6.31875 75.2004 10.0017 80.7124 14.6447 85.3553C19.2876 89.9983 24.7995 93.6812 30.8658 96.194C36.9321 98.7067 43.4339 100 50 100C56.5661 100 63.0679 98.7067 69.1342 96.194C75.2005 93.6812 80.7124 89.9983 85.3553 85.3553C89.9983 80.7124 93.6812 75.2004 96.194 69.1342C98.7067 63.0679 100 56.5661 100 50L85.1917 50C85.1917 54.6214 84.2814 59.1976 82.5129 63.4673C80.7443 67.7369 78.1521 71.6164 74.8843 74.8843C71.6164 78.1521 67.7369 80.7443 63.4673 82.5129C59.1976 84.2814 54.6214 85.1917 50 85.1917C45.3786 85.1917 40.8024 84.2814 36.5327 82.5129C32.2631 80.7443 28.3836 78.1521 25.1157 74.8843C21.8479 71.6164 19.2557 67.7369 17.4871 63.4673C15.7186 59.1976 14.8083 54.6214 14.8083 50L-3.25826e-06 50Z" fill="#354BAC"/>
<ellipse cx="27" cy="62.5" rx="9" ry="9.5" fill="#EE794F"/>
</svg>
