<svg width="126" height="85" viewBox="0 0 126 85" fill="none" xmlns="http://www.w3.org/2000/svg">
<path d="M83.5 85C89.0812 85 94.6077 83.9007 99.764 81.7649C104.92 79.6291 109.606 76.4985 113.552 72.552C117.499 68.6055 120.629 63.9204 122.765 58.764C124.901 53.6077 126 48.0812 126 42.5C126 36.9188 124.901 31.3923 122.765 26.236C120.629 21.0796 117.499 16.3944 113.552 12.448C109.606 8.50147 104.92 5.37094 99.764 3.23512C94.6077 1.09929 89.0812 -2.1017e-06 83.5 -1.85773e-06L83.5 42.5L83.5 85Z" fill="#354BAC"/>
<path d="M42.5 85C48.0812 85 53.6077 83.9007 58.764 81.7649C63.9204 79.6291 68.6055 76.4985 72.552 72.552C76.4985 68.6055 79.6291 63.9204 81.7649 58.764C83.9007 53.6077 85 48.0812 85 42.5C85 36.9188 83.9007 31.3923 81.7649 26.236C79.6291 21.0796 76.4985 16.3944 72.552 12.448C68.6055 8.50147 63.9204 5.37094 58.764 3.23512C53.6077 1.09929 48.0812 -2.1017e-06 42.5 -1.85773e-06L42.5 11.5174C46.5687 11.5174 50.5975 12.3188 54.3565 13.8758C58.1155 15.4328 61.531 17.715 64.408 20.592C67.285 23.469 69.5672 26.8845 71.1242 30.6435C72.6812 34.4025 73.4826 38.4313 73.4826 42.5C73.4826 46.5687 72.6812 50.5975 71.1242 54.3565C69.5672 58.1155 67.285 61.531 64.408 64.408C61.531 67.285 58.1155 69.5672 54.3565 71.1242C50.5975 72.6812 46.5687 73.4826 42.5 73.4826L42.5 85Z" fill="#354BAC"/>
<ellipse cx="41.5" cy="42" rx="8.5" ry="9" fill="#EE794F"/>
</svg>
