<svg width="103" height="111" viewBox="0 0 103 111" fill="none" xmlns="http://www.w3.org/2000/svg">
<path d="M103 59.5C103 52.7369 101.668 46.0401 99.0798 39.7918C96.4917 33.5435 92.6982 27.8662 87.916 23.084C83.1338 18.3018 77.4565 14.5083 71.2082 11.9202C64.9599 9.33209 58.2631 8 51.5 8C44.7369 8 38.0401 9.33209 31.7918 11.9202C25.5435 14.5083 19.8662 18.3018 15.084 23.084C10.3018 27.8662 6.50832 33.5435 3.9202 39.7918C1.33209 46.0401 -5.91247e-07 52.7369 0 59.5H15.2526C15.2526 54.7399 16.1901 50.0265 18.0117 45.6287C19.8334 41.231 22.5033 37.2351 25.8692 33.8692C29.2351 30.5033 33.231 27.8334 37.6287 26.0117C42.0265 24.1901 46.7399 23.2526 51.5 23.2526C56.2601 23.2526 60.9735 24.1901 65.3713 26.0117C69.769 27.8334 73.7649 30.5033 77.1308 33.8692C80.4967 37.2351 83.1666 41.231 84.9883 45.6287C86.8099 50.0265 87.7474 54.7399 87.7474 59.5H103Z" fill="#354BAC"/>
<circle cx="84.5" cy="8.5" r="8.5" fill="#EE794F"/>
</svg>
