<svg width="121" height="80" viewBox="0 0 121 80" fill="none" xmlns="http://www.w3.org/2000/svg">
<g clip-path="url(#clip0)">
<rect width="1920" height="13665" transform="translate(-1012 -1200)" fill="#F8F8FD"/>
<path d="M12 16C12 22.5661 13.2933 29.0679 15.806 35.1342C18.3188 41.2004 22.0017 46.7124 26.6447 51.3553C31.2876 55.9983 36.7995 59.6812 42.8658 62.194C48.9321 64.7067 55.4339 66 62 66C68.5661 66 75.0679 64.7067 81.1342 62.194C87.2005 59.6812 92.7124 55.9983 97.3553 51.3553C101.998 46.7124 105.681 41.2004 108.194 35.1342C110.707 29.0679 112 22.5661 112 16L97.1917 16C97.1917 20.6214 96.2814 25.1976 94.5129 29.4673C92.7443 33.7369 90.1521 37.6164 86.8843 40.8843C83.6164 44.1521 79.7369 46.7443 75.4673 48.5129C71.1976 50.2814 66.6214 51.1917 62 51.1917C57.3786 51.1917 52.8024 50.2814 48.5327 48.5129C44.2631 46.7443 40.3836 44.1521 37.1157 40.8843C33.8479 37.6164 31.2557 33.7369 29.4871 29.4673C27.7186 25.1976 26.8083 20.6214 26.8083 16L12 16Z" fill="#354BAC"/>
<ellipse cx="39" cy="28.5" rx="9" ry="9.5" fill="#EE794F"/>
</g>
<defs>
<clipPath id="clip0">
<rect width="1920" height="13665" fill="white" transform="translate(-1012 -1200)"/>
</clipPath>
</defs>
</svg>
